<svg width="22" height="17" viewBox="0 0 22 17" fill="none" xmlns="http://www.w3.org/2000/svg">
<path d="M17.0765 15.7101H11.6448C11.501 14.6558 11.7207 10.0239 12.2678 9.11122C12.3458 8.98204 12.4303 8.85695 12.5211 8.73641C12.8645 9.25788 13.3494 9.67074 13.919 9.92666C14.2277 10.0591 14.5605 10.1263 14.8965 10.1242C15.5127 10.1079 16.1145 9.93352 16.6439 9.6177C17.6187 9.06165 18.3811 8.1976 18.8116 7.16124C18.9229 6.88636 19.0193 6.6057 19.1003 6.32047C19.1928 5.99641 19.3096 5.6798 19.4498 5.37334C19.5518 5.15552 19.7068 4.96675 19.9005 4.8243C20.0943 4.68184 20.3207 4.59025 20.559 4.55789C20.6625 4.54439 20.7594 4.49922 20.8362 4.42858C20.9131 4.35794 20.9663 4.26527 20.9884 4.16325C21.0106 4.06124 21.0007 3.95486 20.9601 3.85868C20.9195 3.7625 20.8502 3.68122 20.7616 3.62595C19.4347 2.85014 17.903 2.49681 16.3704 2.61298C15.4549 2.67125 14.5663 2.94548 13.7772 3.41323C12.9535 3.90394 12.3226 4.66177 11.9893 5.56074C11.7411 6.27939 11.7411 7.0605 11.9893 7.77915C11.792 8.00164 11.6141 8.24056 11.4574 8.4933C11.2848 7.91452 11.0234 7.36604 10.6825 6.86748C10.5032 6.6073 10.3015 6.36326 10.0798 6.13813C10.3104 5.43045 10.2997 4.66626 10.0494 3.9653C9.71966 3.06711 9.08989 2.31032 8.26657 1.82286C7.47747 1.35511 6.58881 1.08088 5.67335 1.02261C4.14047 0.903503 2.60791 1.25703 1.2821 2.03558C1.18313 2.08449 1.10284 2.1644 1.05347 2.26315C1.0041 2.36189 0.988343 2.47406 1.0086 2.58259C1.03218 2.68861 1.08922 2.78425 1.17129 2.85538C1.25337 2.92651 1.35614 2.96938 1.46444 2.97765C1.70166 3.01124 1.92695 3.10276 2.12041 3.24409C2.31387 3.38543 2.46953 3.57225 2.57365 3.78803C2.71127 4.0967 2.82638 4.41494 2.91806 4.74023C3.00416 5.01373 3.09026 5.29736 3.20676 5.581C3.64036 6.62535 4.40809 7.49639 5.38972 8.05772C5.91821 8.37566 6.5205 8.55024 7.1371 8.56421C7.46984 8.55728 7.79752 8.4814 8.09943 8.34135C8.68851 8.07504 9.18803 7.64411 9.53785 7.10046C9.63577 7.21151 9.7271 7.3282 9.81136 7.44994C10.3925 8.31405 10.6932 9.33629 10.6724 10.3774C10.5485 10.9598 10.5177 15.1181 10.5812 15.7101H5.2002C5.06587 15.7101 4.93704 15.7635 4.84206 15.8585C4.74707 15.9535 4.69371 16.0823 4.69371 16.2166C4.69371 16.3509 4.74707 16.4798 4.84206 16.5747C4.93704 16.6697 5.06587 16.7231 5.2002 16.7231H17.0765C17.2108 16.7231 17.3397 16.6697 17.4347 16.5747C17.5296 16.4798 17.583 16.3509 17.583 16.2166C17.583 16.0823 17.5296 15.9535 17.4347 15.8585C17.3397 15.7635 17.2108 15.7101 17.0765 15.7101ZM12.9364 5.90008C13.1927 5.22301 13.6736 4.65444 14.2988 4.28945C14.9502 3.90293 15.6851 3.67883 16.4413 3.63608C17.3997 3.55826 18.3634 3.69494 19.2624 4.03621C18.9479 4.2731 18.693 4.58005 18.5179 4.93269C18.3533 5.28804 18.2161 5.65547 18.1076 6.03177C18.0266 6.29514 17.9506 6.53826 17.8544 6.78137C17.5092 7.61093 16.8981 8.30222 16.1171 8.74654C15.8502 8.91953 15.5489 9.03226 15.234 9.07687C14.919 9.12148 14.5982 9.0969 14.2938 9.00485C13.8405 8.78144 13.4634 8.42901 13.2099 7.99188C13.7267 7.55087 14.3333 7.22767 14.9877 7.04475C15.1173 7.00915 15.2275 6.92352 15.294 6.80668C15.3604 6.68985 15.3778 6.55139 15.3422 6.42177C15.3066 6.29214 15.221 6.18196 15.1041 6.11547C14.9873 6.04898 14.8489 6.03163 14.7192 6.06722C14.0349 6.25627 13.3923 6.57242 12.825 6.99916C12.7789 6.62909 12.817 6.25338 12.9364 5.90008ZM9.18838 5.3936C8.61212 4.98635 7.97189 4.67821 7.29411 4.48192C7.16449 4.44565 7.02576 4.46236 6.90845 4.52837C6.79115 4.59439 6.70487 4.7043 6.6686 4.83393C6.63233 4.96355 6.64904 5.10228 6.71506 5.21959C6.78107 5.33689 6.89098 5.42317 7.02061 5.45944C7.6742 5.64684 8.28496 5.95996 8.81864 6.38125C8.5612 6.82255 8.1763 7.17567 7.7145 7.39422C7.41033 7.48633 7.08982 7.51138 6.77503 7.46766C6.46025 7.42394 6.15869 7.31249 5.89114 7.14098C5.11402 6.69341 4.50543 6.00296 4.15895 5.17581C4.06272 4.93776 3.98168 4.66932 3.90064 4.42114C3.79382 4.04662 3.65836 3.68087 3.49545 3.32713C3.31975 2.97345 3.065 2.66497 2.75092 2.42558C3.65039 2.09378 4.61147 1.96241 5.56699 2.04065C6.32392 2.08833 7.05927 2.31206 7.7145 2.69402C8.3398 3.06123 8.82059 3.63139 9.07695 4.30971C9.19401 4.65653 9.23207 5.02511 9.18838 5.38853V5.3936Z" fill="#5E7384" stroke="white" stroke-width="0.3"/>
</svg>
