<svg width="24" height="24" viewBox="0 0 24 24" fill="none" xmlns="http://www.w3.org/2000/svg">
<path d="M17.6944 20.6558H6.30697C6.23119 20.6558 6.15851 20.6257 6.10493 20.5722C6.05134 20.5186 6.02124 20.4459 6.02124 20.3701V10.2707C6.02124 10.195 6.05134 10.1223 6.10493 10.0687C6.15851 10.0151 6.23119 9.98502 6.30697 9.98502C6.38275 9.98502 6.45543 10.0151 6.50901 10.0687C6.56259 10.1223 6.5927 10.195 6.5927 10.2707V20.0844H17.4087V10.2707C17.4087 10.195 17.4388 10.1223 17.4924 10.0687C17.546 10.0151 17.6186 9.98502 17.6944 9.98502C17.7702 9.98502 17.8429 10.0151 17.8964 10.0687C17.95 10.1223 17.9801 10.195 17.9801 10.2707V20.3701C17.9801 20.4459 17.95 20.5186 17.8964 20.5722C17.8429 20.6257 17.7702 20.6558 17.6944 20.6558Z" fill="#5E7384"/>
<path d="M21.0199 10.5569H17.694C17.6182 10.5569 17.5455 10.5268 17.492 10.4732C17.4384 10.4196 17.4083 10.347 17.4083 10.2712C17.4083 10.1954 17.4384 10.1227 17.492 10.0692C17.5455 10.0156 17.6182 9.98546 17.694 9.98546H20.7799L21.3893 6.53529L15.0879 4.59233C14.117 5.02906 13.0645 5.25489 11.9999 5.25489C10.9352 5.25489 9.88275 5.02906 8.91184 4.59233L2.61038 6.53529L3.22012 9.98546H6.30599C6.38177 9.98546 6.45445 10.0156 6.50804 10.0692C6.56162 10.1227 6.59172 10.1954 6.59172 10.2712C6.59172 10.347 6.56162 10.4196 6.50804 10.4732C6.45445 10.5268 6.38177 10.5569 6.30599 10.5569H2.98068C2.91356 10.5569 2.8486 10.5332 2.79719 10.49C2.74578 10.4469 2.7112 10.387 2.69952 10.3209L2.00435 6.38528C1.99226 6.31676 2.00559 6.24618 2.04183 6.18679C2.07808 6.1274 2.13475 6.08327 2.20121 6.06269L8.84527 4.01373C8.91118 3.99327 8.98229 3.99754 9.04528 4.02573C9.97066 4.45679 10.9791 4.68015 12 4.68015C13.0209 4.68015 14.0293 4.45679 14.9547 4.02573C15.0177 3.99754 15.0888 3.99327 15.1547 4.01373L21.7988 6.06355C21.8653 6.08413 21.9219 6.12825 21.9582 6.18765C21.9944 6.24704 22.0077 6.31762 21.9957 6.38614L21.3013 10.3206C21.2897 10.3868 21.2551 10.4468 21.2036 10.49C21.1522 10.5332 21.0871 10.5569 21.0199 10.5569Z" fill="#5E7384"/>
<path d="M12.0004 7.35389C11.1628 7.35645 10.3545 7.04624 9.73368 6.484C9.11289 5.92176 8.72436 5.14802 8.64419 4.31431C8.63662 4.23891 8.6593 4.16358 8.70726 4.10491C8.75522 4.04623 8.82452 4.00901 8.89992 4.00143C8.97532 3.99386 9.05065 4.01654 9.10932 4.0645C9.168 4.11246 9.20522 4.18176 9.21279 4.25716C9.28116 4.94913 9.6044 5.59095 10.1197 6.05784C10.635 6.52472 11.3055 6.7833 12.0008 6.7833C12.6961 6.7833 13.3666 6.52472 13.8819 6.05784C14.3972 5.59095 14.7204 4.94913 14.7888 4.25716C14.7964 4.18176 14.8336 4.11246 14.8923 4.0645C14.9509 4.01654 15.0263 3.99386 15.1017 4.00143C15.1771 4.00901 15.2464 4.04623 15.2943 4.10491C15.3423 4.16358 15.365 4.23891 15.3574 4.31431C15.2772 5.14814 14.8885 5.92197 14.2675 6.48421C13.6466 7.04646 12.838 7.3566 12.0004 7.35389Z" fill="#5E7384"/>
</svg>
