<svg width="116" height="92" viewBox="0 0 116 92" fill="none" xmlns="http://www.w3.org/2000/svg">
<path fill-rule="evenodd" clip-rule="evenodd" d="M33.6716 106.487C33.4394 107.353 32.8768 108.093 32.1026 108.544C31.5865 108.845 31.0033 109 30.415 109C30.1208 109 29.8318 108.964 29.5427 108.886L3.49934 101.882C1.70323 101.4 0.634857 99.5456 1.11487 97.7376L6.99342 75.7157V75.7105L26.2653 3.5099C26.4976 2.64476 27.0602 1.90399 27.8343 1.4532C28.6085 1.0025 29.5271 0.883341 30.3943 1.11646L56.443 8.12579C58.2391 8.60758 59.3074 10.4622 58.8274 12.2702L33.6716 106.487ZM128.6 4.76744H101.396H101.396C99.5159 4.76744 97.9956 6.28437 97.9904 8.148V105.619C97.9904 107.488 99.5107 109 101.39 109H128.6C130.48 109 132 107.488 132 105.619V8.148C132 6.27907 130.48 4.76744 128.6 4.76744ZM105.548 78.8605V11.0465H125.702V78.8605H105.548ZM125.702 102.721V86.3953H105.548V102.721H125.702ZM118.144 25.7712V64.1357C118.144 66.0226 116.736 67.5581 114.995 67.5581C113.254 67.5581 111.846 66.0278 111.846 64.1357V25.7712C111.846 23.8792 113.254 22.3488 114.995 22.3488C116.736 22.3488 118.144 23.8792 118.144 25.7712ZM63.6029 4.76744H90.8105C92.6908 4.76744 94.2115 6.27907 94.2115 8.148V105.619C94.2115 107.488 92.6908 109 90.8105 109H63.6029C61.7227 109 60.2019 107.488 60.2019 105.619V8.148C60.2019 6.28437 61.7227 4.76744 63.6029 4.76744ZM66.5 78.8605V11.0465H86.6538V78.8605H66.5ZM86.6538 102.721V86.3953H66.5V102.721H86.6538ZM80.3558 25.7712V64.1357C80.3558 66.0226 78.9477 67.5581 77.2067 67.5581C75.4658 67.5581 74.0577 66.0278 74.0577 64.1357V25.7712C74.0577 23.8792 75.4658 22.3488 77.2067 22.3488C78.9477 22.3488 80.3558 23.8792 80.3558 25.7712ZM14.8558 73.6508L32.1311 8.53488L51.3846 13.7445L34.1092 78.8605L14.8558 73.6508ZM28.3102 101.465L32.4904 85.5227L12.7379 80.1163L8.55769 96.0533L28.3102 101.465ZM38.8306 22.466C40.6156 22.9592 41.6692 24.8377 41.1935 26.6639L31.4963 63.7626C31.0974 65.2948 29.7472 66.3023 28.2742 66.3023C27.9929 66.3023 27.7013 66.2656 27.4098 66.1869C25.6248 65.6936 24.5712 63.8151 25.0469 61.989L34.7389 24.8903C35.2197 23.0589 37.0405 21.978 38.8306 22.466Z" fill="#EEF0F3"/>
<path d="M32.1026 108.544L32.6058 109.408L32.6058 109.408L32.1026 108.544ZM33.6716 106.487L34.6378 106.745L34.6374 106.747L33.6716 106.487ZM29.5427 108.886L29.2831 109.852L29.283 109.852L29.5427 108.886ZM3.49934 101.882L3.75842 100.916L3.75905 100.916L3.49934 101.882ZM1.11487 97.7376L0.148346 97.481L0.148697 97.4797L1.11487 97.7376ZM6.99342 75.7157H7.99342V75.8469L7.95959 75.9736L6.99342 75.7157ZM6.99342 75.7105H5.99342V75.5794L6.02725 75.4526L6.99342 75.7105ZM26.2653 3.5099L25.2992 3.25201L25.2995 3.25063L26.2653 3.5099ZM27.8343 1.4532L27.3312 0.589026L27.3312 0.588987L27.8343 1.4532ZM30.3943 1.11646L30.6539 0.150753L30.6541 0.150813L30.3943 1.11646ZM56.443 8.12579L56.1839 9.09165L56.1831 9.09144L56.443 8.12579ZM58.8274 12.2702L59.794 12.5268L59.7936 12.5282L58.8274 12.2702ZM97.9904 8.148H96.9904L96.9904 8.14521L97.9904 8.148ZM105.548 11.0465H104.548V10.0465H105.548V11.0465ZM105.548 78.8605V79.8605H104.548V78.8605H105.548ZM125.702 11.0465V10.0465H126.702V11.0465H125.702ZM125.702 78.8605H126.702V79.8605H125.702V78.8605ZM125.702 86.3953V85.3953H126.702V86.3953H125.702ZM125.702 102.721H126.702V103.721H125.702V102.721ZM105.548 86.3953H104.548V85.3953H105.548V86.3953ZM105.548 102.721V103.721H104.548V102.721H105.548ZM66.5 11.0465H65.5V10.0465H66.5V11.0465ZM66.5 78.8605V79.8605H65.5V78.8605H66.5ZM86.6538 11.0465V10.0465H87.6538V11.0465H86.6538ZM86.6538 78.8605H87.6538V79.8605H86.6538V78.8605ZM86.6538 86.3953V85.3953H87.6538V86.3953H86.6538ZM86.6538 102.721H87.6538V103.721H86.6538V102.721ZM66.5 86.3953H65.5V85.3953H66.5V86.3953ZM66.5 102.721V103.721H65.5V102.721H66.5ZM32.1311 8.53488L31.1646 8.27845L31.4223 7.30712L32.3923 7.5696L32.1311 8.53488ZM14.8558 73.6508L14.5946 74.6161L13.634 74.3562L13.8892 73.3944L14.8558 73.6508ZM51.3846 13.7445L51.6458 12.7792L52.6063 13.0391L52.3512 14.0009L51.3846 13.7445ZM34.1092 78.8605L35.0758 79.1169L34.8181 80.0882L33.848 79.8258L34.1092 78.8605ZM32.4904 85.5227L32.7544 84.5581L33.7086 84.8193L33.4577 85.7763L32.4904 85.5227ZM28.3102 101.465L29.2775 101.719L29.0211 102.697L28.046 102.43L28.3102 101.465ZM12.7379 80.1163L11.7706 79.8626L12.027 78.8849L13.0018 79.1518L12.7379 80.1163ZM8.55769 96.0533L8.29345 97.0177L7.33945 96.7564L7.59042 95.7996L8.55769 96.0533ZM41.1935 26.6639L42.1612 26.9159L42.161 26.9168L41.1935 26.6639ZM38.8306 22.466L39.0936 21.5012L39.0969 21.5021L38.8306 22.466ZM31.4963 63.7626L30.5286 63.5106L30.5288 63.5097L31.4963 63.7626ZM27.4098 66.1869L27.1491 67.1523L27.1434 67.1508L27.4098 66.1869ZM25.0469 61.989L24.0791 61.7369L24.0793 61.7362L25.0469 61.989ZM34.7389 24.8903L33.7714 24.6375L33.7717 24.6363L34.7389 24.8903ZM31.5994 107.68C32.1435 107.363 32.5413 106.841 32.7058 106.228L34.6374 106.747C34.3374 107.864 33.6102 108.823 32.6058 109.408L31.5994 107.68ZM30.415 108C30.8274 108 31.2369 107.891 31.5995 107.68L32.6058 109.408C31.9361 109.798 31.1792 110 30.415 110V108ZM29.8024 107.92C30.0033 107.974 30.2049 108 30.415 108V110C30.0367 110 29.6602 109.953 29.2831 109.852L29.8024 107.92ZM3.75905 100.916L29.8024 107.92L29.283 109.852L3.23964 102.848L3.75905 100.916ZM2.08139 97.9942C1.7417 99.2737 2.49904 100.578 3.75842 100.916L3.24026 102.848C0.907425 102.222 -0.471985 99.8176 0.148346 97.481L2.08139 97.9942ZM7.95959 75.9736L2.08104 97.9955L0.148697 97.4797L6.02725 75.4578L7.95959 75.9736ZM7.99342 75.7105V75.7157H5.99342V75.7105H7.99342ZM27.2315 3.7678L7.95959 75.9684L6.02725 75.4526L25.2992 3.25201L27.2315 3.7678ZM28.3375 2.31738C27.7935 2.63415 27.3957 3.15631 27.2311 3.76918L25.2995 3.25063C25.5995 2.13321 26.3268 1.17382 27.3312 0.589026L28.3375 2.31738ZM30.1347 2.08217C29.5224 1.91757 28.8787 2.00236 28.3375 2.31742L27.3312 0.588987C28.3384 0.00264728 29.5319 -0.150884 30.6539 0.150753L30.1347 2.08217ZM56.1831 9.09144L30.1344 2.08211L30.6541 0.150813L56.7028 7.16014L56.1831 9.09144ZM57.8609 12.0136C58.2006 10.7341 57.4433 9.42946 56.1839 9.09165L56.702 7.15994C59.0349 7.7857 60.4143 10.1903 59.794 12.5268L57.8609 12.0136ZM32.7055 106.229L57.8613 12.0123L59.7936 12.5282L34.6378 106.745L32.7055 106.229ZM101.396 3.76744H128.6V5.76744H101.396V3.76744ZM101.396 3.76744H101.396V5.76744H101.396V3.76744ZM96.9904 8.14521C96.9971 5.72766 98.9674 3.76744 101.396 3.76744V5.76744C100.064 5.76744 98.994 6.84108 98.9904 8.1508L96.9904 8.14521ZM96.9904 105.619V8.148H98.9904V105.619H96.9904ZM101.39 110C98.9638 110 96.9904 108.046 96.9904 105.619H98.9904C98.9904 106.931 100.058 108 101.39 108V110ZM128.6 110H101.39V108H128.6V110ZM133 105.619C133 108.046 131.027 110 128.6 110V108C129.933 108 131 106.931 131 105.619H133ZM133 8.148V105.619H131V8.148H133ZM128.6 3.76744C131.027 3.76744 133 5.7214 133 8.148H131C131 6.83674 129.933 5.76744 128.6 5.76744V3.76744ZM106.548 11.0465V78.8605H104.548V11.0465H106.548ZM125.702 12.0465H105.548V10.0465H125.702V12.0465ZM124.702 78.8605V11.0465H126.702V78.8605H124.702ZM105.548 77.8605H125.702V79.8605H105.548V77.8605ZM126.702 86.3953V102.721H124.702V86.3953H126.702ZM105.548 85.3953H125.702V87.3953H105.548V85.3953ZM104.548 102.721V86.3953H106.548V102.721H104.548ZM125.702 103.721H105.548V101.721H125.702V103.721ZM117.144 64.1357V25.7712H119.144V64.1357H117.144ZM114.995 66.5581C116.106 66.5581 117.144 65.5513 117.144 64.1357H119.144C119.144 66.4938 117.366 68.5581 114.995 68.5581V66.5581ZM112.846 64.1357C112.846 65.5555 113.883 66.5581 114.995 66.5581V68.5581C112.625 68.5581 110.846 66.5001 110.846 64.1357H112.846ZM112.846 25.7712V64.1357H110.846V25.7712H112.846ZM114.995 23.3488C113.883 23.3488 112.846 24.3515 112.846 25.7712H110.846C110.846 23.4069 112.625 21.3488 114.995 21.3488V23.3488ZM117.144 25.7712C117.144 24.3515 116.107 23.3488 114.995 23.3488V21.3488C117.365 21.3488 119.144 23.4069 119.144 25.7712H117.144ZM90.8105 5.76744H63.6029V3.76744H90.8105V5.76744ZM93.2115 8.148C93.2115 6.83704 92.1442 5.76744 90.8105 5.76744V3.76744C93.2374 3.76744 95.2115 5.72111 95.2115 8.148H93.2115ZM93.2115 105.619V8.148H95.2115V105.619H93.2115ZM90.8105 108C92.1442 108 93.2115 106.93 93.2115 105.619H95.2115C95.2115 108.046 93.2374 110 90.8105 110V108ZM63.6029 108H90.8105V110H63.6029V108ZM61.2019 105.619C61.2019 106.93 62.2693 108 63.6029 108V110C61.1761 110 59.2019 108.046 59.2019 105.619H61.2019ZM61.2019 8.148V105.619H59.2019V8.148H61.2019ZM63.6029 5.76744C62.2703 5.76744 61.2019 6.84132 61.2019 8.148H59.2019C59.2019 5.72743 61.1751 3.76744 63.6029 3.76744V5.76744ZM67.5 11.0465V78.8605H65.5V11.0465H67.5ZM86.6538 12.0465H66.5V10.0465H86.6538V12.0465ZM85.6538 78.8605V11.0465H87.6538V78.8605H85.6538ZM66.5 77.8605H86.6538V79.8605H66.5V77.8605ZM87.6538 86.3953V102.721H85.6538V86.3953H87.6538ZM66.5 85.3953H86.6538V87.3953H66.5V85.3953ZM65.5 102.721V86.3953H67.5V102.721H65.5ZM86.6538 103.721H66.5V101.721H86.6538V103.721ZM79.3558 64.1357V25.7712H81.3558V64.1357H79.3558ZM77.2067 66.5581C78.3177 66.5581 79.3558 65.5513 79.3558 64.1357H81.3558C81.3558 66.4938 79.5776 68.5581 77.2067 68.5581V66.5581ZM75.0577 64.1357C75.0577 65.5555 76.0948 66.5581 77.2067 66.5581V68.5581C74.8368 68.5581 73.0577 66.5001 73.0577 64.1357H75.0577ZM75.0577 25.7712V64.1357H73.0577V25.7712H75.0577ZM77.2067 23.3488C76.0948 23.3488 75.0577 24.3515 75.0577 25.7712H73.0577C73.0577 23.4069 74.8368 21.3488 77.2067 21.3488V23.3488ZM79.3558 25.7712C79.3558 24.3515 78.3186 23.3488 77.2067 23.3488V21.3488C79.5767 21.3488 81.3558 23.4069 81.3558 25.7712H79.3558ZM33.0977 8.79131L15.8223 73.9073L13.8892 73.3944L31.1646 8.27845L33.0977 8.79131ZM51.1234 14.7098L31.87 9.50017L32.3923 7.5696L51.6458 12.7792L51.1234 14.7098ZM33.1427 78.604L50.4181 13.4881L52.3512 14.0009L35.0758 79.1169L33.1427 78.604ZM15.117 72.6856L34.3704 77.8952L33.848 79.8258L14.5946 74.6161L15.117 72.6856ZM33.4577 85.7763L29.2775 101.719L27.3429 101.211L31.5231 85.269L33.4577 85.7763ZM13.0018 79.1518L32.7544 84.5581L32.2264 86.4872L12.4739 81.0808L13.0018 79.1518ZM7.59042 95.7996L11.7706 79.8626L13.7051 80.37L9.52497 96.307L7.59042 95.7996ZM28.046 102.43L8.29345 97.0177L8.82194 95.0888L28.5745 100.501L28.046 102.43ZM40.2258 26.4118C40.5689 25.0946 39.8028 23.7721 38.5642 23.4298L39.0969 21.5021C41.4284 22.1464 42.7694 24.5809 42.1612 26.9159L40.2258 26.4118ZM30.5288 63.5097L40.226 26.411L42.161 26.9168L32.4638 64.0155L30.5288 63.5097ZM28.2742 65.3023C29.2889 65.3023 30.2436 64.6052 30.5286 63.5106L32.464 64.0146C31.9511 65.9845 30.2054 67.3023 28.2742 67.3023V65.3023ZM27.6705 65.2215C27.8758 65.2769 28.0796 65.3023 28.2742 65.3023V67.3023C27.9061 67.3023 27.5269 67.2543 27.1491 67.1523L27.6705 65.2215ZM26.0146 62.241C25.6715 63.5583 26.4376 64.8807 27.6762 65.223L27.1434 67.1508C24.812 66.5065 23.4709 64.0719 24.0791 61.7369L26.0146 62.241ZM35.7065 25.143L26.0144 62.2417L24.0793 61.7362L33.7714 24.6375L35.7065 25.143ZM38.5676 23.4308C37.3342 23.0945 36.0512 23.8299 35.7061 25.1442L33.7717 24.6363C34.3882 22.2879 36.7467 20.8614 39.0936 21.5012L38.5676 23.4308Z" fill="white"/>
</svg>
