<svg width="47" height="44" viewBox="0 0 47 44" fill="none" xmlns="http://www.w3.org/2000/svg">
<path d="M29.0158 8.33476C29.6116 8.43601 29.8678 9.2446 29.4322 9.72413L26.9978 12.3039L27.5744 15.9601C27.6064 16.6211 27.0427 17.1273 26.4917 16.825L23.5128 15.1023L20.5083 16.8461C19.9573 17.1484 19.3359 16.6422 19.4256 15.9883L20.0022 12.325L17.5678 9.72413C17.1322 9.2446 17.3884 8.43601 17.9842 8.33476L21.3347 7.8046L22.8466 4.44521C23.122 3.83904 23.9036 3.86429 24.1534 4.44521L25.6653 7.8046L29.0158 8.33476ZM27.6 22C28.7339 22 29.65 23.0055 29.65 24.25V37.75C29.65 38.9945 28.7339 40 27.6 40H19.4C18.2661 40 17.35 38.9945 17.35 37.75V24.25C17.35 23.0055 18.2661 22 19.4 22H27.6ZM13.25 26.5C14.3839 26.5 15.3 27.5055 15.3 28.75V37.75C15.3 38.9945 14.3839 40 13.25 40H5.05C3.91802 40 3 38.9945 3 37.75V28.75C3 27.5055 3.91802 26.5 5.05 26.5H13.25ZM31.7 33.25C31.7 32.0055 32.6161 31 33.75 31H41.95C43.0839 31 44 32.0055 44 33.25V37.75C44 38.9945 43.0839 40 41.95 40H33.75C32.6161 40 31.7 38.9945 31.7 37.75V33.25Z" fill="url(#paint0_linear_359_288)"/>
<defs>
<linearGradient id="paint0_linear_359_288" x1="0.671646" y1="42.9461" x2="48.3823" y2="42.9461" gradientUnits="userSpaceOnUse">
<stop stop-color="#C95B5B"/>
<stop offset="1" stop-color="#D13C41"/>
</linearGradient>
</defs>
</svg>
