<svg width="24" height="24" viewBox="0 0 24 24" fill="none" xmlns="http://www.w3.org/2000/svg">
<path d="M19.8565 17.9249L14.8402 9.00707V4.2768C15.2949 4.11559 15.6215 3.68117 15.6215 3.17188C15.6215 2.5257 15.0958 2 14.4496 2H9.76208C9.11591 2 8.59021 2.5257 8.59021 3.17188C8.59021 3.68117 8.91673 4.11559 9.37146 4.2768V9.00707L4.35521 17.9249C3.87364 18.781 3.8822 19.7983 4.37802 20.6461C4.8738 21.4939 5.75614 22 6.73825 22H17.4734C18.4555 22 19.3378 21.4939 19.8336 20.6461C20.3295 19.7983 20.338 18.781 19.8565 17.9249ZM10.1026 9.30086C10.1354 9.24242 10.1527 9.17645 10.1527 9.10938V4.34375H10.5433C10.759 4.34375 10.934 4.16883 10.934 3.95312C10.934 3.73742 10.759 3.5625 10.5433 3.5625H9.76208C9.54669 3.5625 9.37146 3.38727 9.37146 3.17188C9.37146 2.95648 9.54669 2.78125 9.76208 2.78125H14.4496C14.665 2.78125 14.8402 2.95648 14.8402 3.17188C14.8402 3.38727 14.665 3.5625 14.4496 3.5625H13.6683C13.4526 3.5625 13.2777 3.73742 13.2777 3.95312C13.2777 4.16883 13.4526 4.34375 13.6683 4.34375H14.059V9.10938C14.059 9.17648 14.0762 9.24238 14.1091 9.30086L16.4115 13.3941C15.0054 13.2802 13.6043 13.5646 12.3169 14.2312C10.662 15.0876 8.8197 15.2384 7.08255 14.6698L10.1026 9.30086ZM19.1592 20.2517C18.8051 20.8572 18.1749 21.2188 17.4734 21.2188H6.73825C6.03677 21.2188 5.40653 20.8572 5.05243 20.2517C4.69825 19.6461 4.69212 18.9195 5.03614 18.3079L6.69271 15.3629C7.49646 15.6436 8.32708 15.7852 9.17071 15.7852C9.2956 15.7852 9.42079 15.7821 9.54622 15.7759C10.6363 15.722 11.6893 15.4357 12.6761 14.925C13.9961 14.2416 15.4479 14.0056 16.8863 14.2382L19.1756 18.3079C19.5195 18.9195 19.5134 19.6461 19.1592 20.2517Z" fill="#5E7384"/>
</svg>
