<svg width="24" height="24" viewBox="0 0 24 24" fill="none" xmlns="http://www.w3.org/2000/svg">
<path d="M21.6552 22H2.34483C2.25337 22 2.16567 21.9637 2.101 21.899C2.03633 21.8343 2 21.7466 2 21.6552V12C2 11.9085 2.03633 11.8208 2.101 11.7562C2.16567 11.6915 2.25337 11.6552 2.34483 11.6552H21.6552C21.7466 11.6552 21.8343 11.6915 21.899 11.7562C21.9637 11.8208 22 11.9085 22 12V21.6552C22 21.7466 21.9637 21.8343 21.899 21.899C21.8343 21.9637 21.7466 22 21.6552 22ZM2.68966 21.3103H21.3103V12.3448H2.68966V21.3103Z" fill="#5E7384"/>
<path d="M14.7586 22H9.24137C9.14992 22 9.06221 21.9637 8.99754 21.899C8.93288 21.8343 8.89655 21.7466 8.89655 21.6552V16.8276C8.89655 16.7361 8.93288 16.6484 8.99754 16.5838C9.06221 16.5191 9.14992 16.4828 9.24137 16.4828H14.7586C14.8501 16.4828 14.9378 16.5191 15.0024 16.5838C15.0671 16.6484 15.1034 16.7361 15.1034 16.8276V21.6552C15.1034 21.7466 15.0671 21.8343 15.0024 21.899C14.9378 21.9637 14.8501 22 14.7586 22ZM9.5862 21.3103H14.4138V17.1724H9.5862V21.3103Z" fill="#5E7384"/>
<path d="M14.7586 12.3448H2.34483C2.25337 12.3448 2.16567 12.3085 2.101 12.2438C2.03633 12.1792 2 12.0915 2 12C2 10.2624 2.69027 8.59592 3.91896 7.36723C5.14764 6.13854 6.8141 5.44827 8.55172 5.44827C10.2893 5.44827 11.9558 6.13854 13.1845 7.36723C14.4132 8.59592 15.1034 10.2624 15.1034 12C15.1034 12.0915 15.0671 12.1792 15.0024 12.2438C14.9378 12.3085 14.8501 12.3448 14.7586 12.3448ZM2.68966 11.6552H14.4138C14.3466 10.5271 13.9547 9.44248 13.2853 8.53194C12.616 7.6214 11.6977 6.92373 10.6411 6.52294C9.58449 6.12215 8.43454 6.03532 7.3297 6.27291C6.22487 6.51049 5.21227 7.06236 4.41379 7.86207C3.39046 8.87019 2.77633 10.2213 2.68966 11.6552Z" fill="#5E7384"/>
<path d="M21.6552 12.3448H14.7586C14.6672 12.3448 14.5795 12.3085 14.5148 12.2438C14.4501 12.1792 14.4138 12.0915 14.4138 12C14.4138 10.4453 13.7962 8.95424 12.6968 7.85489C11.5975 6.75554 10.1065 6.13793 8.55174 6.13793C8.46028 6.13793 8.37257 6.1016 8.30791 6.03693C8.24324 5.97227 8.20691 5.88456 8.20691 5.7931V3.72414C8.20691 3.26687 8.38856 2.82833 8.7119 2.50499C9.03524 2.18165 9.47378 2 9.93105 2H20.2759C20.7331 2 21.1717 2.18165 21.495 2.50499C21.8184 2.82833 22 3.26687 22 3.72414V12C22 12.0915 21.9637 12.1792 21.899 12.2438C21.8343 12.3085 21.7466 12.3448 21.6552 12.3448ZM15.1035 11.6552H21.3104V3.72414C21.3104 3.44978 21.2014 3.18665 21.0074 2.99265C20.8134 2.79865 20.5502 2.68966 20.2759 2.68966H9.93105C9.65669 2.68966 9.39356 2.79865 9.19956 2.99265C9.00555 3.18665 8.89656 3.44978 8.89656 3.72414V5.44828C10.5158 5.53147 12.0467 6.21212 13.1931 7.3586C14.3396 8.50508 15.0203 10.0359 15.1035 11.6552Z" fill="#5E7384"/>
</svg>
