<svg width="16" height="12" viewBox="0 0 16 12" fill="none" xmlns="http://www.w3.org/2000/svg">
<path d="M7.9998 0C7.38335 0 6.88345 0.499771 6.88345 1.11635C6.88345 1.73294 7.38322 2.23271 7.9998 2.23271C8.61638 2.23271 9.11615 1.73294 9.11615 1.11635C9.11615 0.499904 8.61638 0 7.9998 0ZM7.42425 2.48833L4.83702 6.13952L1.52888 4.87781C1.40845 4.99825 1.26271 5.08935 1.09868 5.14528L2.79045 10.0463H13.2091L14.9011 5.14495C14.737 5.08902 14.5911 4.99791 14.4708 4.87748L11.1626 6.13929L8.57535 2.48809C8.39743 2.56375 8.20419 2.60437 7.9998 2.60437C7.79541 2.60437 7.60202 2.56375 7.42425 2.48809V2.48833ZM0.744126 3.34887C0.333126 3.34887 0 3.68199 0 4.09299C0 4.50399 0.333126 4.83712 0.744126 4.83712C1.15513 4.83712 1.48825 4.50399 1.48825 4.09299C1.48825 3.68199 1.15513 3.34887 0.744126 3.34887ZM15.2559 3.34887C14.8449 3.34887 14.5117 3.68199 14.5117 4.09299C14.5117 4.50399 14.8449 4.83712 15.2559 4.83712C15.6669 4.83712 16 4.50399 16 4.09299C16 3.68199 15.6669 3.34887 15.2559 3.34887ZM2.79065 10.4187V11.9071H13.2093V10.4187H2.79065Z" fill="#EC9120"/>
</svg>
