<svg width="24" height="24" viewBox="0 0 24 24" fill="none" xmlns="http://www.w3.org/2000/svg">
<path d="M20.4049 18.3098H3.59514C3.1722 18.3093 2.76673 18.141 2.46769 17.8419C2.16865 17.5428 2.00045 17.1373 2 16.7144V15.5715C2 15.4958 2.0301 15.4231 2.08368 15.3695C2.13727 15.3159 2.20994 15.2858 2.28571 15.2858H21.7143C21.7901 15.2858 21.8627 15.3159 21.9163 15.3695C21.9699 15.4231 22 15.4958 22 15.5715V16.7144C21.9995 17.1373 21.8314 17.5428 21.5323 17.8419C21.2333 18.141 20.8278 18.3093 20.4049 18.3098ZM2.57143 15.8572V16.7144C2.57166 16.9858 2.67957 17.2461 2.8715 17.4381C3.06343 17.6301 3.32368 17.7381 3.59514 17.7384H20.4049C20.6763 17.7381 20.9366 17.6301 21.1285 17.4381C21.3204 17.2461 21.4283 16.9858 21.4286 16.7144V15.8572H2.57143Z" fill="#5E7384"/>
<path d="M13.5206 16.9999H10.4789C10.2919 16.9998 10.1126 16.9254 9.98032 16.7932C9.84807 16.661 9.77366 16.4818 9.77344 16.2948V15.5714C9.77344 15.4956 9.80354 15.4229 9.85712 15.3693C9.9107 15.3157 9.98338 15.2856 10.0592 15.2856H13.9403C14.0161 15.2856 14.0887 15.3157 14.1423 15.3693C14.1959 15.4229 14.226 15.4956 14.226 15.5714V16.2948C14.2258 16.4818 14.1514 16.661 14.0191 16.7932C13.8869 16.9254 13.7076 16.9998 13.5206 16.9999ZM10.3449 15.8571V16.2948C10.3449 16.3303 10.3591 16.3643 10.3842 16.3894C10.4093 16.4144 10.4434 16.4285 10.4789 16.4285H13.5206C13.5561 16.4285 13.5901 16.4144 13.6152 16.3894C13.6404 16.3643 13.6545 16.3303 13.6546 16.2948V15.8571H10.3449Z" fill="#5E7384"/>
<path d="M20.1329 15.8571H3.86781C3.79203 15.8571 3.71936 15.827 3.66578 15.7735C3.61219 15.7199 3.58209 15.6472 3.58209 15.5714V6.17343C3.58247 5.86233 3.70622 5.56409 3.9262 5.34411C4.14618 5.12413 4.44442 5.00038 4.75552 5H19.2452C19.5563 5.00038 19.8546 5.12413 20.0746 5.34411C20.2945 5.56409 20.4183 5.86233 20.4187 6.17343V15.5714C20.4187 15.6472 20.3886 15.7199 20.335 15.7735C20.2814 15.827 20.2087 15.8571 20.1329 15.8571ZM4.15352 15.2857H19.8472V6.17343C19.847 6.01384 19.7835 5.86085 19.6707 5.748C19.5578 5.63515 19.4048 5.57166 19.2452 5.57143H4.75552C4.59593 5.57166 4.44294 5.63515 4.33009 5.748C4.21725 5.86085 4.15375 6.01384 4.15352 6.17343V15.2857Z" fill="#5E7384"/>
</svg>
