<svg width="25" height="23" viewBox="0 0 25 23" fill="none" xmlns="http://www.w3.org/2000/svg">
<path d="M22.8125 4.66573H18.5454V2.44277C18.5454 1.50346 17.7534 0.739258 16.7802 0.739258H8.37451C7.40116 0.739258 6.60944 1.5036 6.60944 2.44277V4.66573H2.34221C1.36886 4.66573 0.577148 5.42989 0.577148 6.36906V20.4969C0.577148 21.4362 1.369 22.2004 2.34221 22.2004H22.8121C23.7854 22.2004 24.5771 21.4361 24.5771 20.4969V6.36951C24.5773 5.43002 23.7855 4.66573 22.8125 4.66573ZM7.65835 2.44295C7.65835 2.06175 7.97963 1.75188 8.37409 1.75188H16.7797C17.1748 1.75188 17.4959 2.06193 17.4959 2.44295V4.66591L7.65835 4.66573V2.44295ZM23.5282 20.4969C23.5282 20.8781 23.2069 21.188 22.8125 21.188H2.34212C1.94729 21.188 1.62638 20.8779 1.62638 20.4969V11.855L12.521 14.3672C12.5609 14.3764 12.6021 14.3811 12.6431 14.3811C12.6846 14.3811 12.7258 14.3764 12.7664 14.367L22.1126 12.1871C22.3943 12.1213 22.567 11.8478 22.4995 11.576C22.4313 11.3041 22.1481 11.1374 21.8663 11.2026L12.6423 13.3542L1.62638 10.8138V6.36899C1.62638 5.98796 1.94766 5.67828 2.34212 5.67828H22.812C23.2068 5.67828 23.5277 5.98833 23.5277 6.36899L23.5282 20.4969Z" fill="#8195A5"/>
</svg>
