<svg width="24" height="27" viewBox="0 0 24 27" fill="none" xmlns="http://www.w3.org/2000/svg">
<path d="M0.937059 7.05023L11.9999 12.5817M11.9999 12.5817L23.0628 7.05023M11.9999 12.5817L11.9999 26.0217M6.28563 4.01023L17.7142 9.72452M13.0171 1.66738L22.1599 6.2388C22.5407 6.42804 22.8612 6.71975 23.0853 7.08114C23.3094 7.44254 23.4283 7.85928 23.4285 8.28452V19.1759C23.4283 19.6012 23.3094 20.0179 23.0853 20.3793C22.8612 20.7407 22.5407 21.0324 22.1599 21.2217L13.0171 25.7931C12.6995 25.952 12.3493 26.0347 11.9942 26.0347C11.6391 26.0347 11.2889 25.952 10.9713 25.7931L1.82849 21.2217C1.44806 21.03 1.12878 20.7358 0.906645 20.3723C0.684514 20.0088 0.56838 19.5905 0.571344 19.1645V8.28452C0.57157 7.85928 0.690416 7.44254 0.914521 7.08114C1.13863 6.71975 1.4591 6.42804 1.83992 6.2388L10.9828 1.66738C11.2988 1.51032 11.647 1.42859 11.9999 1.42859C12.3529 1.42859 12.701 1.51032 13.0171 1.66738Z" stroke="#8195A5" stroke-linecap="round" stroke-linejoin="round"/>
</svg>
