<svg width="24" height="24" viewBox="0 0 24 24" fill="none" xmlns="http://www.w3.org/2000/svg">
<path d="M20.6192 5.82168H16.3008C16.4572 5.69651 16.6137 5.57134 16.7076 5.47746C17.4899 4.69514 17.4899 3.38085 16.7076 2.59853C15.9252 1.81621 14.611 1.81621 13.8286 2.59853C13.4531 2.97404 12.5769 4.22575 12.0137 5.35229C11.4504 4.22575 10.5742 2.97404 10.1987 2.59853C9.41637 1.81621 8.10208 1.78492 7.31976 2.59853C6.53744 3.38085 6.53744 4.69514 7.31976 5.47746C7.41364 5.57134 7.5701 5.69651 7.72656 5.82168H3.40817C2.62585 5.82168 2 6.44753 2 7.22985V10.1088C2 10.2965 2.12517 10.4217 2.31293 10.4217H2.93878V20.5605C2.93878 21.3429 3.56463 22 4.34695 22H19.6804C20.4627 22 21.0885 21.3741 21.0885 20.5918V10.4217H21.7144C21.9022 10.4217 22.0273 10.2965 22.0273 10.1088V7.22985C22.0273 6.44753 21.4015 5.82168 20.6192 5.82168ZM14.2667 3.00534C14.83 2.44207 15.7062 2.44207 16.2695 3.00534C16.8327 3.5686 16.8327 4.4448 16.2695 5.00807C16.0817 5.19582 15.6749 5.50875 15.2368 5.79038C15.1116 5.79038 12.2953 5.79038 12.4831 5.79038C12.9837 4.72643 13.8912 3.41214 14.2667 3.00534ZM7.75785 5.00807C7.19459 4.4448 7.19459 3.5686 7.75785 3.00534C8.32112 2.44207 9.19732 2.44207 9.76059 3.00534C10.1361 3.38085 11.0436 4.69514 11.5443 5.79038C11.4817 5.79038 8.75922 5.79038 8.79051 5.79038C8.32112 5.50875 7.94561 5.19582 7.75785 5.00807ZM2.62585 7.22985C2.62585 6.79175 2.97007 6.44753 3.40817 6.44753H10.3239V9.79585C8.03949 9.79585 6.09934 9.79585 2.59456 9.79585V7.22985H2.62585ZM3.56463 20.5605V10.4217H10.3551V21.3741H4.34695C3.90885 21.3741 3.56463 20.9986 3.56463 20.5605ZM10.981 21.3741V10.1088V6.44753C11.0436 6.44753 13.1402 6.44753 13.0776 6.44753V10.1088V21.3741H10.981ZM20.4627 20.5605C20.4627 20.9986 20.1185 21.3429 19.6804 21.3429H13.6722V10.4217H20.4627V20.5605ZM21.4015 9.79585C19.1484 9.79585 17.1457 9.79585 13.6722 9.79585V6.44753H20.5879C21.026 6.44753 21.3702 6.79175 21.3702 7.22985V9.79585H21.4015Z" fill="#5E7384"/>
</svg>
