<svg width="24" height="24" viewBox="0 0 24 24" fill="none" xmlns="http://www.w3.org/2000/svg">
<path d="M13.6815 20.6357C13.1188 20.638 12.5568 20.5988 11.9999 20.5183C11.2575 20.6325 6.38694 21.2367 3.67569 17.9595C0.953034 14.6713 2.35234 8.96957 2.41315 8.72859C2.4275 8.67182 2.45895 8.62084 2.50325 8.58254C2.54754 8.54425 2.60254 8.5205 2.66079 8.51452C2.71904 8.50853 2.77772 8.5206 2.82887 8.54909C2.88003 8.57758 2.92119 8.62111 2.94678 8.67377C4.10002 10.7567 5.98054 12.3416 8.22879 13.1252C10.843 13.7479 11.6892 15.8425 12.0136 17.6746C12.3542 15.9989 13.2159 14.1219 15.7589 13.1295C18.0127 12.3463 19.8984 10.7594 21.0552 8.67263C21.0808 8.61997 21.122 8.57645 21.1732 8.54798C21.2244 8.51952 21.2831 8.50747 21.3413 8.51349C21.3996 8.5195 21.4545 8.54329 21.4988 8.58161C21.5431 8.61994 21.5745 8.67095 21.5888 8.72774C21.6497 8.96871 23.045 14.6701 20.3229 17.9584C18.4485 20.2251 15.5419 20.6357 13.6815 20.6357ZM2.82201 9.59113C2.54306 11.2134 2.12278 15.1872 4.11482 17.5952C5.2109 18.92 6.83177 19.7217 8.93286 19.9784C9.84795 20.0884 10.7728 20.0904 11.6884 19.9844C11.6755 19.8439 11.6635 19.6912 11.651 19.5276C11.5031 17.6218 11.2555 14.4323 8.07347 13.6745C5.91352 12.9428 4.06338 11.5042 2.82201 9.59113ZM12.3139 19.985C13.228 20.0905 14.1513 20.0883 15.0648 19.9784C17.1659 19.7214 18.7868 18.92 19.8829 17.5955C21.8769 15.1869 21.4584 11.214 21.18 9.5917C19.9454 11.4999 18.1034 12.9359 15.9517 13.6677C12.7291 14.924 12.5001 17.7266 12.3485 19.5807C12.337 19.7226 12.3259 19.8579 12.3139 19.985Z" fill="#5E7384"/>
<path d="M10.6432 15.2552C10.5698 15.2553 10.4993 15.2272 10.4461 15.1766C10.3929 15.126 10.3613 15.057 10.3577 14.9837C10.1747 11.234 13.5794 9.81732 14.6273 9.47213C16.1872 8.93131 17.4922 7.83313 18.2916 6.38858C18.3172 6.33592 18.3584 6.29242 18.4096 6.26397C18.4608 6.23552 18.5195 6.22351 18.5777 6.22955C18.636 6.2356 18.691 6.25942 18.7352 6.29777C18.7795 6.33613 18.8109 6.38717 18.8252 6.44397C18.8629 6.59415 19.7343 10.1502 18.2576 12.5308C18.2177 12.5952 18.1538 12.6411 18.0801 12.6584C18.0064 12.6757 17.9288 12.663 17.8644 12.6231C17.8001 12.5832 17.7542 12.5193 17.7369 12.4456C17.7196 12.3719 17.7323 12.2943 17.7722 12.2299C18.7475 10.6579 18.5776 8.4243 18.4058 7.29509C17.5295 8.56519 16.267 9.51881 14.8057 10.0143C13.8564 10.3275 10.7648 11.6092 10.9287 14.9566C10.9305 14.994 10.9249 15.0315 10.9123 15.0668C10.8996 15.1021 10.8801 15.1345 10.8549 15.1623C10.8297 15.19 10.7992 15.2126 10.7653 15.2286C10.7314 15.2446 10.6947 15.2537 10.6572 15.2555L10.6432 15.2552Z" fill="#5E7384"/>
<path d="M5.74546 12.4834C5.69462 12.4835 5.64469 12.47 5.60082 12.4443C5.55695 12.4186 5.52074 12.3816 5.49592 12.3372C4.03438 9.72535 4.96116 6.47135 5.00113 6.33431C5.01706 6.28 5.04877 6.23165 5.09224 6.19541C5.1357 6.15916 5.18896 6.13665 5.24524 6.13073C5.30146 6.12531 5.35805 6.13644 5.40802 6.16277C5.45799 6.1891 5.49916 6.22948 5.52647 6.27892C5.53932 6.30261 6.82499 8.63498 9.37406 9.47267C9.92855 9.63847 10.4406 9.92224 10.8751 10.3045C11.3097 10.6868 11.6564 11.1586 11.8914 11.6874C11.9225 11.7565 11.9248 11.8351 11.8979 11.9059C11.871 11.9767 11.8171 12.034 11.748 12.065C11.6789 12.096 11.6003 12.0984 11.5295 12.0715C11.4586 12.0446 11.4014 11.9906 11.3704 11.9215C11.1667 11.4657 10.8668 11.0594 10.4914 10.7303C10.116 10.4012 9.67387 10.1571 9.19533 10.0149C7.66478 9.47573 6.34047 8.47269 5.40684 7.14545C5.2204 8.19529 5.02197 10.3195 5.99415 12.0586C6.01842 12.102 6.03093 12.151 6.03044 12.2007C6.02995 12.2505 6.01647 12.2992 5.99134 12.3421C5.96622 12.3851 5.93031 12.4207 5.88718 12.4455C5.84406 12.4702 5.7952 12.4833 5.74546 12.4834Z" fill="#5E7384"/>
<path d="M9.38883 10.0656C9.32176 10.0656 9.25685 10.0419 9.20548 9.99878C9.15411 9.95566 9.11956 9.89583 9.10789 9.82978C9.00916 9.27601 9.03235 8.70738 9.17584 8.1635C9.31934 7.61961 9.57968 7.11355 9.93873 6.68056C10.7583 5.6591 11.3645 4.48356 11.7215 3.22356C11.7356 3.16011 11.7709 3.10337 11.8216 3.06272C11.8724 3.02207 11.9354 2.99995 12.0004 3C12.0654 2.99995 12.1285 3.02207 12.1792 3.06272C12.2299 3.10337 12.2653 3.16011 12.2794 3.22356C12.6364 4.48356 13.2426 5.6591 14.0621 6.68056C14.4211 7.1135 14.6813 7.61947 14.8248 8.16325C14.9683 8.70702 14.9916 9.27553 14.893 9.82921C14.887 9.86665 14.8737 9.90254 14.8537 9.93476C14.8337 9.96699 14.8075 9.99492 14.7766 10.0169C14.7457 10.0389 14.7108 10.0545 14.6738 10.0629C14.6368 10.0712 14.5985 10.0721 14.5612 10.0655C14.5238 10.0588 14.4882 10.0449 14.4563 10.0243C14.4245 10.0038 14.397 9.97709 14.3756 9.94582C14.3541 9.91455 14.3391 9.87932 14.3314 9.8422C14.3237 9.80507 14.3235 9.76678 14.3308 9.72956C14.414 9.25441 14.3927 8.76684 14.2684 8.30074C14.1441 7.83465 13.9198 7.40123 13.611 7.0306C12.9411 6.17524 12.3987 5.2274 12.0004 4.21658C11.6021 5.22735 11.0596 6.17517 10.3898 7.0306C10.081 7.40128 9.85663 7.83481 9.73237 8.30102C9.60812 8.76723 9.58695 9.25491 9.67035 9.73013C9.67693 9.76709 9.67615 9.80498 9.66807 9.84163C9.65999 9.87828 9.64476 9.91298 9.62325 9.94375C9.60174 9.97451 9.57438 10.0007 9.54273 10.0209C9.51108 10.0411 9.47576 10.0548 9.4388 10.0613C9.42229 10.0642 9.40558 10.0656 9.38883 10.0656Z" fill="#5E7384"/>
</svg>
