<svg width="24" height="24" viewBox="0 0 24 24" fill="none" xmlns="http://www.w3.org/2000/svg">
<path d="M21.9963 17.8617L20.4741 6.44652C20.3642 5.62172 19.6542 5 18.8221 5H9.08332C8.85301 5 8.66664 5.18637 8.66664 5.41668C8.66664 5.64699 8.85301 5.83336 9.08332 5.83336H18.8221C19.238 5.83336 19.5932 6.14422 19.6481 6.55641L20.2186 10.8334H9.08332C5.1775 10.8333 2 14.0108 2 17.9166C2 18.147 2.18637 18.3333 2.41668 18.3333H21.5834C21.7034 18.3333 21.8177 18.2816 21.8967 18.1913C21.976 18.1005 22.0122 17.9805 21.9963 17.8617ZM2.84719 17.5C3.06242 14.2472 5.77727 11.6666 9.08332 11.6666H20.3297L21.1073 17.5H2.84719Z" fill="#5E7384"/>
<path d="M12.0003 15.4166C12.4605 15.4166 12.8336 15.0435 12.8336 14.5833C12.8336 14.1231 12.4605 13.75 12.0003 13.75C11.5401 13.75 11.167 14.1231 11.167 14.5833C11.167 15.0435 11.5401 15.4166 12.0003 15.4166Z" fill="#5E7384"/>
</svg>
