<svg width="24" height="24" viewBox="0 0 24 24" fill="none" xmlns="http://www.w3.org/2000/svg">
<path d="M1 21.322H22.6949V22H1V21.322Z" fill="#5E7384"/>
<path d="M3.03435 21.6611H2.35638V12.1695H6.0852V12.8475H3.03435V21.6611Z" fill="#5E7384"/>
<path d="M21.339 21.661H20.661V12.8475H17.6102V12.1695H21.339V21.661Z" fill="#5E7384"/>
<path d="M17.9485 21.6607H17.2706V5.05052H14.2197V4.37256H17.9485V21.6607Z" fill="#5E7384"/>
<path d="M6.42308 21.6607H5.74512V4.37256H9.47393V5.05052H6.42308V21.6607Z" fill="#5E7384"/>
<path d="M11.5088 11.4912H12.1867V14.203H11.5088V11.4912Z" fill="#5E7384"/>
<path d="M10.4922 12.5085H13.204V13.1864H10.4922V12.5085Z" fill="#5E7384"/>
<path d="M14.5593 7.42373H9.13559V2H14.5593V7.42373ZM9.81356 6.74576H13.8814V2.67797H9.81356V6.74576Z" fill="#5E7384"/>
<path d="M14.5593 21.661H13.8814V18.2712H9.81356V21.661H9.13559V17.5932H14.5593V21.661Z" fill="#5E7384"/>
</svg>
