<svg width="24" height="24" viewBox="0 0 24 24" fill="none" xmlns="http://www.w3.org/2000/svg">
<path d="M21.6665 13.6669H20.6441L19.9998 4.31099C19.9878 4.13582 19.8421 4.00008 19.6665 4.00032H17.6665C17.4908 4.00008 17.3452 4.13582 17.3331 4.31099L16.6888 13.6669H16V11.6669C16 11.483 15.8507 11.3336 15.6667 11.3336C15.5908 11.3334 15.5173 11.3593 15.4582 11.4067L12.6666 13.6399V11.6669C12.6666 11.483 12.5174 11.3336 12.3333 11.3336C12.2575 11.3334 12.1841 11.3593 12.125 11.4067L9.33336 13.6399V11.6669C9.33336 11.483 9.18419 11.3336 9.00011 11.3336C8.9243 11.3334 8.85069 11.3593 8.79173 11.4067L6.00011 13.6399V11.6669C5.99999 11.483 5.8507 11.3337 5.66674 11.3337C5.60607 11.3337 5.54687 11.3502 5.49499 11.3813L2.16162 13.3813C2.0614 13.4416 2 13.5499 2 13.6669V21.6669C2 21.851 2.14929 22.0002 2.33337 22.0002H21.6665C21.8505 22.0002 21.9998 21.851 21.9998 21.6669V14.0003C21.9998 13.8161 21.8505 13.6669 21.6665 13.6669ZM17.9777 4.66695H19.3552L19.976 13.6669H17.3569L17.9777 4.66695ZM13.3331 21.3335V17.3335H15.3331V21.3335H13.3331ZM21.3332 21.3335H16V17.0002C16 16.8162 15.8506 16.6669 15.6665 16.6669H12.9999C12.8158 16.6669 12.6665 16.8162 12.6665 17.0002V21.3335H2.66662V13.8556L5.33324 12.2557V14.3335C5.33324 14.5178 5.48241 14.6669 5.6665 14.6672C5.74218 14.6672 5.81579 14.6413 5.87499 14.5939L8.66661 12.3607V14.3335C8.66661 14.5178 8.81566 14.6669 8.99986 14.6672C9.07554 14.6672 9.14903 14.6413 9.20823 14.594L11.9999 12.3608V14.3337C11.9999 14.5178 12.1489 14.6672 12.3331 14.6672C12.4088 14.6672 12.4823 14.6413 12.5415 14.594L15.3331 12.3608V14.0003C15.3331 14.1845 15.4824 14.3337 15.6665 14.3337H21.333V21.3335H21.3332Z" fill="#5E7384"/>
<path d="M13.3303 2.66691C13.4515 2.73186 13.561 2.81657 13.6544 2.91752C13.8413 3.14543 14.1074 3.29387 14.3993 3.33354C14.7068 3.29435 14.9875 3.13945 15.1847 2.90019C15.269 2.81169 15.3634 2.73344 15.4661 2.66691C15.5347 2.66997 15.7144 2.83818 15.811 2.92851C15.9908 3.15104 16.2491 3.29594 16.5326 3.33354C16.86 3.29204 17.1592 3.12785 17.37 2.87419C17.4517 2.79753 17.5753 2.6812 17.5992 2.66691C17.7782 2.66691 17.8192 2.72624 17.9293 2.88493C18.074 3.15825 18.3567 3.33049 18.666 3.33354C18.85 3.33354 18.9993 3.18425 18.9993 3.00029C18.9993 2.81608 18.85 2.66691 18.666 2.66691C18.5992 2.66691 18.5863 2.66228 18.478 2.5059C18.301 2.18791 17.963 1.99345 17.5992 2.00017C17.3296 2.03764 17.0842 2.17632 16.9133 2.38823C16.8026 2.4926 16.6171 2.66691 16.5466 2.6685C16.4434 2.606 16.3491 2.52983 16.2659 2.44231C16.0654 2.19817 15.7793 2.04009 15.4659 2.00017C15.177 2.0396 14.9138 2.18681 14.7289 2.41215C14.6354 2.5125 14.5273 2.59831 14.4086 2.66691C14.2975 2.60319 14.1964 2.5236 14.1086 2.43022C13.9138 2.19365 13.6365 2.04009 13.3325 2.00017C13.1486 1.99956 12.9987 2.14824 12.998 2.33244C12.9974 2.5164 13.1462 2.6663 13.3303 2.66691Z" fill="#5E7384"/>
</svg>
