<svg width="47" height="44" viewBox="0 0 47 44" fill="none" xmlns="http://www.w3.org/2000/svg">
<path d="M27.3891 5.38678H13.2025C12.2769 5.38678 11.4225 5.53305 10.657 5.82498C9.89177 6.11722 9.17979 6.55573 8.53868 7.14021C7.8979 7.72469 7.41714 8.37411 7.09676 9.07239C6.77637 9.77037 6.61634 10.55 6.61634 11.3942V24.0258C6.61634 24.87 6.77637 25.6493 7.09676 26.3476C7.41714 27.0459 7.8979 27.695 8.53868 28.2798C9.19708 28.8646 9.9094 29.3186 10.6746 29.5947C11.4401 29.887 12.2769 30.0332 13.2025 30.0332H19.2902C20.0025 30.0332 20.5897 30.5688 20.5897 31.2183C20.5897 31.3645 20.5541 31.4944 20.5185 31.6243C20.287 32.4039 20.0378 33.1832 19.753 33.9298C19.4502 34.7258 19.1302 35.4723 18.7738 36.2033C18.5958 36.5766 18.3822 36.9335 18.151 37.3074C19.397 36.8036 20.5717 36.2194 21.6577 35.5697C22.7968 34.8878 23.8648 34.1249 24.8436 33.2967C25.8404 32.4525 26.7303 31.5269 27.5491 30.5364C27.7983 30.2284 28.1899 30.066 28.5815 30.066H33.8148C34.7404 30.066 35.5771 29.9197 36.3424 29.6275C37.1079 29.3353 37.8199 28.8967 38.4786 28.3126C39.1194 27.7278 39.6001 27.0787 39.9205 26.3804C40.2406 25.6821 40.401 24.9025 40.401 24.0586V11.4267C40.401 10.5825 40.2406 9.80315 39.9205 9.10487C39.6001 8.40658 39.1194 7.75747 38.4786 7.17268C37.8378 6.5879 37.1259 6.14969 36.3603 5.85776C35.5948 5.56552 34.7407 5.41925 33.8148 5.41925H27.3891V5.38678ZM24.9202 20.2214H21.538V19.888C21.538 19.3212 21.6017 18.8592 21.7326 18.5054C21.8635 18.1482 22.0574 17.8272 22.3161 17.5334C22.5744 17.2393 23.1549 16.7235 24.0574 15.9856C24.5375 15.5988 24.7775 15.2447 24.7775 14.9234C24.7775 14.5996 24.6802 14.3506 24.489 14.1707C24.2944 13.9935 24.0025 13.9035 23.6109 13.9035C23.1881 13.9035 22.8416 14.0414 22.5656 14.3172C22.289 14.5903 22.113 15.073 22.0364 15.7574L18.5813 15.3344C18.6996 14.0807 19.1614 13.0725 19.9639 12.3077C20.7694 11.543 22.0032 11.1617 23.6651 11.1617C24.9596 11.1617 26.0021 11.4286 26.7978 11.9595C27.8773 12.6826 28.4177 13.6422 28.4177 14.842C28.4177 15.3399 28.278 15.823 27.9983 16.285C27.722 16.7467 27.1504 17.3139 26.2906 17.9797C25.6919 18.4507 25.3118 18.8255 25.1538 19.1106C24.9992 19.3932 24.9202 19.765 24.9202 20.2214ZM21.4197 21.1089H25.045V23.7474H21.4197V21.1089ZM19.6285 3.01639H33.8148C35.0608 3.01639 36.2359 3.22761 37.3395 3.63334C38.425 4.03907 39.4222 4.65633 40.3121 5.46811C41.2024 6.27988 41.8788 7.18907 42.324 8.1796C42.7688 9.17012 43 10.2414 43 11.3945V24.0258C43 25.179 42.7684 26.2502 42.324 27.2407C41.8788 28.2306 41.2024 29.1398 40.3121 29.9522C39.4222 30.764 38.4254 31.3642 37.3395 31.7867C36.2539 32.1927 35.0788 32.4039 33.8148 32.4039H29.2226C28.4218 33.3292 27.5494 34.2056 26.6239 35.0016C25.5203 35.9433 24.3456 36.7869 23.0816 37.534C21.8177 38.297 20.465 38.9631 19.023 39.5308C17.5991 40.0992 16.0683 40.5702 14.4664 40.9599C14.0036 41.0734 13.5052 40.9435 13.1669 40.6024C12.6864 40.1156 12.7397 39.3691 13.2737 38.9306C14.0212 38.3297 14.662 37.7128 15.1784 37.0955C15.6767 36.4953 16.0863 35.8777 16.3887 35.245V35.2286C16.7271 34.5467 17.0295 33.8484 17.2967 33.1501C17.3858 32.9068 17.4747 32.647 17.5638 32.3872H13.1848C11.9389 32.3872 10.7641 32.1757 9.66021 31.77C8.57428 31.3639 7.57751 30.7473 6.68754 29.9355C5.79757 29.1237 5.12119 28.2142 4.67604 27.224C4.23122 26.2177 4 25.1462 4 24.0097V11.3778C4 10.241 4.23122 9.1695 4.67638 8.1629C5.12153 7.17237 5.79791 6.26319 6.68788 5.45141C7.57785 4.63963 8.57461 4.02268 9.66055 3.61664C10.7465 3.2106 11.9209 3 13.1848 3H19.6106L19.6285 3.01639Z" fill="url(#paint0_linear_359_268)"/>
<defs>
<linearGradient id="paint0_linear_359_268" x1="1.78522" y1="44.1098" x2="47.1685" y2="44.1098" gradientUnits="userSpaceOnUse">
<stop stop-color="#C95B5B"/>
<stop offset="1" stop-color="#D13C41"/>
</linearGradient>
</defs>
</svg>
