<svg width="24" height="24" viewBox="0 0 24 24" fill="none" xmlns="http://www.w3.org/2000/svg">
<path d="M3 20.3456C3 21.2578 3.74218 22 4.65437 22H20.4057C20.5784 22 20.7182 21.8602 20.7182 21.6875V4.92879C20.7182 3.31378 19.4044 2 17.7894 2H8.00819C6.39318 2 5.07941 3.31378 5.07941 4.92879V8.97205C5.07941 9.1448 5.21917 9.28456 5.39191 9.28456H8.58375V10.4555C8.58375 10.6283 8.72351 10.768 8.89626 10.768C9.069 10.768 9.20877 10.6283 9.20877 10.4555V9.28456H12.8025C13.3702 9.28456 13.8319 9.74627 13.8319 10.3139V17.6622C13.8319 18.2295 13.3702 18.6913 12.8025 18.6913H11.8326C11.898 18.552 11.9374 18.3982 11.9374 18.2344V12.4849C11.9374 12.3122 11.7976 12.1724 11.6249 12.1724H6.16741C5.99467 12.1724 5.85491 12.3122 5.85491 12.4849V13.6827H5.00684C4.29884 13.6827 3.72268 14.2586 3.72268 14.9666V16.522C3.72268 17.2301 4.29884 17.8062 5.00684 17.8062H5.85491V18.2344C5.85491 18.3982 5.89427 18.552 5.95968 18.6913H4.65433C3.74218 18.6913 3 19.4335 3 20.3456ZM14.4569 17.6622V10.3139C14.4569 9.40176 13.7147 8.65955 12.8025 8.65955H5.70446V4.92879C5.70446 3.65833 6.73778 2.62501 8.00823 2.62501H17.7894C19.0599 2.62501 20.0932 3.65833 20.0932 4.92879V21.375H4.65433C4.08669 21.375 3.62497 20.9133 3.62497 20.3457C3.62497 19.778 4.08669 19.3163 4.65433 19.3163H12.8025C13.7147 19.3163 14.4569 18.5744 14.4569 17.6622ZM5.00684 17.1813C4.64339 17.1813 4.34766 16.8856 4.34766 16.5221V14.9666C4.34766 14.6035 4.64335 14.3077 5.00684 14.3077H5.85491V17.1813H5.00684ZM6.47992 18.2344C6.47992 16.333 6.47992 14.8552 6.47992 12.7974H11.3124V18.2344C11.3124 18.4862 11.1073 18.6913 10.8555 18.6913H6.93674C6.68501 18.6913 6.47992 18.4862 6.47992 18.2344Z" fill="#5E7384"/>
<path d="M17.1299 9.58033C17.9618 9.58033 18.6387 8.90344 18.6387 8.07155C18.6387 7.23966 17.9618 6.56306 17.1299 6.56306C16.3004 6.56306 15.6257 7.23966 15.6257 8.07155C15.6257 8.90344 16.3004 9.58033 17.1299 9.58033ZM17.1299 7.18808C17.6173 7.18808 18.0137 7.58451 18.0137 8.07155C18.0137 8.55893 17.6172 8.95532 17.1299 8.95532C16.645 8.95532 16.2507 8.55888 16.2507 8.07155C16.2507 7.58451 16.6449 7.18808 17.1299 7.18808Z" fill="#5E7384"/>
<path d="M17.1299 13.9936C17.9618 13.9936 18.6387 13.3167 18.6387 12.4848C18.6387 11.6529 17.9618 10.9763 17.1299 10.9763C16.3004 10.9763 15.6257 11.6529 15.6257 12.4848C15.6257 13.3167 16.3004 13.9936 17.1299 13.9936ZM17.1299 11.6013C17.6173 11.6013 18.0137 11.9977 18.0137 12.4848C18.0137 12.9722 17.6172 13.3685 17.1299 13.3685C16.645 13.3685 16.2507 12.9721 16.2507 12.4848C16.2507 11.9977 16.6449 11.6013 17.1299 11.6013Z" fill="#5E7384"/>
</svg>
