<svg width="24" height="24" viewBox="0 0 24 24" fill="none" xmlns="http://www.w3.org/2000/svg">
<path fill-rule="evenodd" clip-rule="evenodd" d="M16.7321 20.0197H2.23444C2.10421 20.0197 2 19.9138 2 19.7852V17.9357C2 15.9642 3.60367 14.3606 5.57518 14.3606H7.82673C8.01416 14.3606 8.06116 14.5093 8.06116 14.6617C8.06116 15.3227 8.59838 15.8583 9.25938 15.8583H9.70704C10.3863 15.8583 10.9053 15.3314 10.9053 14.5949C10.9053 14.4663 11.0095 14.3604 11.1397 14.3604H13.3912C15.3627 14.3604 16.9664 15.9641 16.9664 17.9356V19.7851C16.9664 19.9137 16.8622 20.0195 16.732 20.0195L16.7321 20.0197ZM2.46888 19.5491H16.4977V17.9341C16.4977 16.2214 15.104 14.8278 13.3913 14.8278H11.366C11.2814 15.6679 10.5699 16.3273 9.70868 16.3273H9.26102C8.39817 16.3273 7.68665 15.6695 7.60366 14.8278H5.57506C3.86238 14.8278 2.46876 16.2214 2.46876 17.9341V19.5491H2.46888Z" fill="#5E7384"/>
<path fill-rule="evenodd" clip-rule="evenodd" d="M9.70706 16.327H9.2594C8.34122 16.327 7.59231 15.5797 7.59231 14.6599V13.7791C7.59231 13.4705 8.06118 13.4705 8.06118 13.7791V14.6599C8.06118 15.3209 8.5984 15.8565 9.2594 15.8565H9.70706C10.3681 15.8565 10.9053 15.3193 10.9053 14.6599V13.7791C10.9053 13.4705 11.3741 13.4705 11.3741 13.7791V14.6599C11.3741 15.5797 10.6269 16.327 9.70706 16.327Z" fill="#5E7384"/>
<path fill-rule="evenodd" clip-rule="evenodd" d="M9.48416 14.6274C7.33167 14.6274 5.40927 11.7869 5.68755 9.56752C5.726 9.26111 6.19159 9.31937 6.15315 9.62613C5.90746 11.5879 7.64874 14.1602 9.48416 14.1602C11.3223 14.1602 13.0605 11.5827 12.8151 9.62613C12.7763 9.31726 13.2427 9.26357 13.2807 9.56752C13.5598 11.7944 11.6317 14.6274 9.48404 14.6274H9.48416Z" fill="#5E7384"/>
<path fill-rule="evenodd" clip-rule="evenodd" d="M13.1829 9.82962H5.88124C5.41236 9.82962 5.0314 9.44866 5.0314 8.97978C5.0314 8.51091 5.41236 8.12994 5.88124 8.12994H13.1829C13.6518 8.12994 14.0328 8.51091 14.0328 8.97978C14.0328 9.44866 13.6502 9.82962 13.1829 9.82962ZM5.88124 8.60046C5.37989 8.60046 5.37989 9.36239 5.88124 9.36239H13.1829C13.6843 9.36239 13.6843 8.60046 13.1829 8.60046H5.88124Z" fill="#5E7384"/>
<path fill-rule="evenodd" clip-rule="evenodd" d="M13.0071 8.60063H5.87799C5.74775 8.60063 5.64355 8.49642 5.64355 8.36619V7.14348C5.64355 5.46338 6.83848 3.99158 8.48447 3.64484C8.78795 3.58178 8.88337 4.03952 8.58211 4.10399C7.1511 4.40513 6.11242 5.68481 6.11242 7.1436V8.13187H12.7727V7.1436C12.7727 5.68328 11.734 4.40524 10.3046 4.10399C10.0025 4.04116 10.0989 3.5799 10.4023 3.64484C12.0482 3.99158 13.2432 5.46338 13.2432 7.14348V8.36619C13.2416 8.49478 13.1375 8.60063 13.0071 8.60063Z" fill="#5E7384"/>
<path fill-rule="evenodd" clip-rule="evenodd" d="M9.44177 7.0961C8.81007 7.0961 8.29724 6.58327 8.29724 5.95158V3.23444C8.29724 3.10421 8.40145 3 8.53168 3H10.3519C10.4821 3 10.5863 3.10421 10.5863 3.23444V5.95169C10.5863 6.58339 10.0735 7.0961 9.44177 7.0961ZM8.76776 3.46888V5.95169C8.76776 6.84104 10.1191 6.84104 10.1191 5.95169V3.46888H8.76776Z" fill="#5E7384"/>
<path fill-rule="evenodd" clip-rule="evenodd" d="M17.3752 20.026C16.89 20.026 16.496 19.6337 16.496 19.1518V13.5628C16.496 13.4342 16.6019 13.3283 16.7305 13.3283H18.0215C18.1501 13.3283 18.256 13.4342 18.256 13.5628V19.1518C18.2543 19.6337 17.8587 20.026 17.3752 20.026ZM16.9633 13.7971V19.1517C16.9633 19.6851 17.7838 19.6851 17.7838 19.1517V13.7971H16.9633ZM18.0199 11.3046H16.7288C16.6003 11.3046 16.4944 11.2003 16.4944 11.0701V10.2692C16.4944 9.88327 16.8102 9.56913 17.1994 9.56913H17.5494C17.9384 9.56913 18.2543 9.88339 18.2543 10.2692V11.0701C18.2543 11.1987 18.1485 11.3046 18.0199 11.3046ZM16.9633 10.8357H17.7855C17.7855 10.0062 17.8625 10.0379 17.1994 10.0379C16.8818 10.0379 16.9633 10.4612 16.9633 10.8357Z" fill="#5E7384"/>
<path fill-rule="evenodd" clip-rule="evenodd" d="M18.0427 13.7972H16.7044C16.2583 13.7972 15.8969 13.4341 15.8969 12.9896V11.6433C15.8969 11.1972 16.2599 10.8357 16.7044 10.8357H18.0427C18.4889 10.8357 18.8503 11.1988 18.8503 11.6433V12.9896C18.8519 13.4358 18.4889 13.7972 18.0427 13.7972ZM16.7061 11.3046C16.5189 11.3046 16.3674 11.4559 16.3674 11.6433V12.9896C16.3674 13.1768 16.5189 13.3283 16.7061 13.3283H18.0444C18.2316 13.3283 18.383 13.1768 18.383 12.9896V11.6433C18.383 11.4561 18.2316 11.3046 18.0444 11.3046H16.7061Z" fill="#5E7384"/>
<path fill-rule="evenodd" clip-rule="evenodd" d="M21.7709 13.4193C21.7432 13.4193 21.7172 13.4144 21.691 13.4046C21.6731 13.3981 19.9262 12.7697 18.6939 13.1898C18.4023 13.288 18.2492 12.846 18.5424 12.7453C19.4574 12.4343 20.5644 12.6134 21.2384 12.7812C20.5172 12.0111 19.0357 11.7196 18.5327 11.6416C18.2285 11.5949 18.2988 11.1284 18.6059 11.1776C21.7648 11.6841 22.4267 13.4193 21.7709 13.4193Z" fill="#5E7384"/>
<path fill-rule="evenodd" clip-rule="evenodd" d="M12.9779 13.4194C12.3111 13.4194 13.0281 11.6635 16.1444 11.181C16.4493 11.1338 16.5236 11.596 16.2176 11.645C15.7162 11.7231 14.233 12.0146 13.5119 12.7846C14.1859 12.6168 15.2945 12.4362 16.2079 12.7487C16.499 12.8489 16.3504 13.2915 16.0565 13.1932C14.824 12.7732 13.0771 13.4016 13.0593 13.4081C13.0333 13.4145 13.0056 13.4194 12.9779 13.4194Z" fill="#5E7384"/>
<path fill-rule="evenodd" clip-rule="evenodd" d="M4.94837 20.0194C4.81814 20.0194 4.71394 19.9136 4.71394 19.785V16.8529C4.71394 16.5442 5.18281 16.5442 5.18281 16.8529V19.785C5.18281 19.9136 5.0786 20.0194 4.94837 20.0194Z" fill="#5E7384"/>
<path fill-rule="evenodd" clip-rule="evenodd" d="M14.0182 20.0196C13.8896 20.0196 13.7837 19.9137 13.7837 19.7851V16.853C13.7837 16.5447 14.2526 16.5447 14.2526 16.853V19.7851C14.2526 19.9137 14.1468 20.0196 14.0182 20.0196Z" fill="#5E7384"/>
</svg>
