<svg width="24" height="24" viewBox="0 0 24 24" fill="none" xmlns="http://www.w3.org/2000/svg">
<path d="M21.5819 6.41295L12.5011 2.02912C12.4206 1.99029 12.3269 1.99029 12.2464 2.02912L3.16559 6.41295C3.06434 6.46181 3 6.56435 3 6.67677V17.3232C3 17.4356 3.06434 17.5382 3.16559 17.587L12.2464 21.9709C12.2866 21.9903 12.3302 22 12.3737 22C12.4173 22 12.4608 21.9903 12.5011 21.9709L21.5819 17.587C21.6831 17.5382 21.7475 17.4356 21.7475 17.3232V6.67681C21.7475 6.56431 21.6831 6.46185 21.5819 6.41295ZM12.3737 2.6183L20.7806 6.67677L18.3437 7.85326C18.3282 7.8415 18.3119 7.83064 18.294 7.82201L9.94425 3.79115L12.3737 2.6183ZM9.28261 4.1224L17.6773 8.17497L15.958 9.00501L7.56675 4.95408L9.28261 4.1224ZM17.8737 8.73076V11.799L16.2677 12.5743V9.50607L17.8737 8.73076ZM21.1615 17.1394L12.6667 21.2402V11.2445L14.693 10.2663C14.8387 10.1959 14.8998 10.0208 14.8294 9.87505C14.7591 9.72939 14.584 9.66822 14.4382 9.73861L12.3737 10.7353L11.5614 10.3431C11.4157 10.2727 11.2405 10.3338 11.1702 10.4795C11.0998 10.6252 11.1609 10.8004 11.3066 10.8708L12.0808 11.2445V21.2402L3.58594 17.1393V7.14353L10.0547 10.2664C10.0957 10.2862 10.1391 10.2956 10.1818 10.2956C10.2907 10.2956 10.3953 10.2346 10.4459 10.1299C10.5162 9.98423 10.4551 9.80907 10.3094 9.73872L3.96684 6.67677L6.87718 5.27177L15.6777 9.52033C15.679 9.52212 15.6805 9.52372 15.6818 9.52548V13.0411C15.6818 13.1419 15.7336 13.2356 15.819 13.2892C15.8664 13.319 15.9205 13.334 15.9748 13.334C16.0182 13.334 16.0618 13.3244 16.1021 13.3049L18.294 12.2467C18.3953 12.1979 18.4596 12.0954 18.4596 11.9829V8.44794L21.1615 7.14357V17.1394Z" fill="#5E7384"/>
</svg>
