<svg width="24" height="24" viewBox="0 0 24 24" fill="none" xmlns="http://www.w3.org/2000/svg">
<path d="M20.7968 11.4156C20.175 11.4156 19.6687 11.8937 19.6062 12.5H16.3813C16.35 11.625 15.6343 10.9219 14.7531 10.9219H14.5031V7.39375C15.1062 7.33125 15.5844 6.825 15.5844 6.20312C15.5844 5.54059 15.0437 5 14.3812 5H9.77184C9.10938 5 8.56875 5.54062 8.56875 6.20312C8.56875 6.77184 8.96875 7.25 9.5 7.37187V10.9219H9.24684C8.36556 10.9219 7.64994 11.625 7.61872 12.5H4.39372C4.33122 11.8937 3.82494 11.4156 3.20306 11.4156C2.54062 11.4156 2 11.9562 2 12.6187V17.2281C2 17.8906 2.54062 18.4312 3.20309 18.4312C3.77187 18.4312 4.24688 18.0312 4.37184 17.5H7.63438C7.73744 18.3031 8.41869 18.925 9.24684 18.925H14.7531C15.5812 18.925 16.2625 18.3031 16.3656 17.5H19.6281C19.7531 18.0312 20.2281 18.4312 20.7968 18.4312C21.4594 18.4312 22 17.8906 22 17.2281V12.6187C22 11.9562 21.4594 11.4156 20.7968 11.4156ZM3.77809 17.2281C3.77809 17.5469 3.52181 17.8062 3.20306 17.8062C2.88431 17.8062 2.625 17.5469 2.625 17.2281V12.6187C2.625 12.3 2.88431 12.0406 3.20309 12.0406C3.52187 12.0406 3.77813 12.3 3.77813 12.6187C3.77809 14.6765 3.77809 15.0566 3.77809 17.2281ZM7.6125 16.875H4.40312V13.125H7.6125V16.875ZM9.19375 6.20312C9.19375 5.88437 9.45306 5.625 9.77184 5.625H14.3812C14.7 5.625 14.9594 5.88437 14.9594 6.20312C14.9594 6.52187 14.7 6.78125 14.3812 6.78125H9.77184C9.45309 6.78125 9.19375 6.52187 9.19375 6.20312ZM13.8781 7.40625V10.9219H10.125V7.40625H13.8781ZM15.7624 17.2906C15.7624 17.8469 15.3093 18.3 14.7531 18.3H9.24684C8.69059 18.3 8.23747 17.8469 8.23747 17.2906V12.5562C8.23747 12 8.69059 11.5469 9.24684 11.5469H14.7531C15.3093 11.5469 15.7624 12 15.7624 12.5562V17.2906ZM19.5968 16.875H16.3874V13.125H19.5968V16.875ZM21.375 17.2281C21.375 17.5469 21.1156 17.8062 20.7968 17.8062C20.4781 17.8062 20.2218 17.5469 20.2218 17.2281V12.6187C20.2218 12.3 20.4781 12.0406 20.7968 12.0406C21.1156 12.0406 21.375 12.3 21.375 12.6187V17.2281Z" fill="#5E7384"/>
</svg>
