<svg width="47" height="45" viewBox="0 0 47 45" fill="none" xmlns="http://www.w3.org/2000/svg">
<path d="M7.94444 20.7578H19.6111C20.1268 20.7578 20.6214 20.5635 20.986 20.2175C21.3507 19.8716 21.5556 19.4024 21.5556 18.9131V7.84473C21.5556 7.35548 21.3507 6.88626 20.986 6.54031C20.6214 6.19435 20.1268 6 19.6111 6H7.94444C7.42875 6 6.93417 6.19435 6.56951 6.54031C6.20486 6.88626 6 7.35548 6 7.84473V18.9131C6 19.4024 6.20486 19.8716 6.56951 20.2175C6.93417 20.5635 7.42875 20.7578 7.94444 20.7578ZM27.3889 20.7578H39.0556C39.5713 20.7578 40.0658 20.5635 40.4305 20.2175C40.7951 19.8716 41 19.4024 41 18.9131V7.84473C41 7.35548 40.7951 6.88626 40.4305 6.54031C40.0658 6.19435 39.5713 6 39.0556 6H27.3889C26.8732 6 26.3786 6.19435 26.014 6.54031C25.6493 6.88626 25.4444 7.35548 25.4444 7.84473V18.9131C25.4444 19.4024 25.6493 19.8716 26.014 20.2175C26.3786 20.5635 26.8732 20.7578 27.3889 20.7578ZM7.94444 39.2051H19.6111C20.1268 39.2051 20.6214 39.0108 20.986 38.6648C21.3507 38.3189 21.5556 37.8496 21.5556 37.3604V26.292C21.5556 25.8028 21.3507 25.3336 20.986 24.9876C20.6214 24.6416 20.1268 24.4473 19.6111 24.4473H7.94444C7.42875 24.4473 6.93417 24.6416 6.56951 24.9876C6.20486 25.3336 6 25.8028 6 26.292V37.3604C6 37.8496 6.20486 38.3189 6.56951 38.6648C6.93417 39.0108 7.42875 39.2051 7.94444 39.2051ZM33.2222 39.2051C37.5117 39.2051 41 35.8957 41 31.8262C41 27.7567 37.5117 24.4473 33.2222 24.4473C28.9328 24.4473 25.4444 27.7567 25.4444 31.8262C25.4444 35.8957 28.9328 39.2051 33.2222 39.2051Z" fill="url(#paint0_linear_359_276)"/>
<defs>
<linearGradient id="paint0_linear_359_276" x1="4.01238" y1="41.9225" x2="44.741" y2="41.9225" gradientUnits="userSpaceOnUse">
<stop stop-color="#C95B5B"/>
<stop offset="1" stop-color="#D13C41"/>
</linearGradient>
</defs>
</svg>
