<svg width="47" height="44" viewBox="0 0 47 44" fill="none" xmlns="http://www.w3.org/2000/svg">
<path d="M9.15 19.8571C11.4114 19.8571 13.25 17.9353 13.25 15.5714C13.25 13.2076 11.4114 11.2857 9.15 11.2857C6.88859 11.2857 5.05 13.2076 5.05 15.5714C5.05 17.9353 6.88859 19.8571 9.15 19.8571ZM37.85 19.8571C40.1114 19.8571 41.95 17.9353 41.95 15.5714C41.95 13.2076 40.1114 11.2857 37.85 11.2857C35.5886 11.2857 33.75 13.2076 33.75 15.5714C33.75 17.9353 35.5886 19.8571 37.85 19.8571ZM39.9 22H35.8C34.6725 22 33.6539 22.4754 32.9108 23.2455C35.4925 24.7254 37.3247 27.3973 37.7219 30.5714H41.95C43.0839 30.5714 44 29.6138 44 28.4286V26.2857C44 23.9219 42.1614 22 39.9 22ZM23.5 22C27.4655 22 30.675 18.6451 30.675 14.5C30.675 10.3549 27.4655 7 23.5 7C19.5345 7 16.325 10.3549 16.325 14.5C16.325 18.6451 19.5345 22 23.5 22ZM28.42 24.1429H27.8883C26.5558 24.8125 25.0759 25.2143 23.5 25.2143C21.9241 25.2143 20.4506 24.8125 19.1117 24.1429H18.58C14.5056 24.1429 11.2 27.5982 11.2 31.8571V33.7857C11.2 35.5603 12.5773 37 14.275 37H32.725C34.4227 37 35.8 35.5603 35.8 33.7857V31.8571C35.8 27.5982 32.4944 24.1429 28.42 24.1429ZM14.0892 23.2455C13.3461 22.4754 12.3275 22 11.2 22H7.1C4.83859 22 3 23.9219 3 26.2857V28.4286C3 29.6138 3.91609 30.5714 5.05 30.5714H9.27172C9.67531 27.3973 11.5075 24.7254 14.0892 23.2455Z" fill="url(#paint0_linear_382_131)"/>
<defs>
<linearGradient id="paint0_linear_382_131" x1="0.671646" y1="39.4551" x2="48.3823" y2="39.4551" gradientUnits="userSpaceOnUse">
<stop stop-color="#C95B5B"/>
<stop offset="1" stop-color="#D13C41"/>
</linearGradient>
</defs>
</svg>
