<svg width="33" height="23" viewBox="0 0 33 23" fill="none" xmlns="http://www.w3.org/2000/svg">
<path d="M23.565 15.7926L28.889 14.2463C30.166 13.8758 31.5024 14.448 32.0733 15.6011L32.0733 15.6011C32.3971 16.2549 32.4183 17.0138 32.1319 17.6835C31.8455 18.3533 31.2749 18.8788 30.5648 19.1241L22.4044 21.9423C21.0042 22.4255 19.5347 22.667 18.0656 22.667H18.0453L18.0449 22.6672C16.5546 22.665 15.0653 22.4144 13.6492 21.9155L13.6492 21.9155L5.2949 18.9729C5.07976 18.8971 4.93936 18.7012 4.93936 18.4853V9.98634C4.93936 9.7028 5.17885 9.4666 5.48286 9.4666C5.52901 9.4666 5.68246 9.47644 5.93165 9.49507L5.9317 9.49507C10.58 9.84001 14.2681 9.72033 16.8869 9.13343L16.887 9.13341C17.5868 8.97598 18.3047 9.1185 18.852 9.52072L18.8521 9.52075C19.3732 9.90326 19.6867 10.4901 19.7131 11.1313L19.7131 11.1314C19.7459 11.9107 19.3628 12.5395 18.6229 12.9077C17.6502 13.3909 16.5597 13.8265 15.7686 14.1229L15.577 14.1946L15.7513 14.3017L16.6839 14.8748C18.7309 16.1338 21.2393 16.4692 23.565 15.7926C23.565 15.7926 23.565 15.7926 23.565 15.7926ZM6.02653 18.052L6.02653 18.1228L6.09331 18.1463L14.0253 20.9403L14.0253 20.9403C16.6043 21.8483 19.4491 21.8575 22.0344 20.9647L30.1948 18.1465C30.621 17.9996 30.9522 17.6956 31.1258 17.2903L31.1258 17.2902C31.2988 16.8848 31.2866 16.4421 31.0908 16.0463L31.0908 16.0463C30.7498 15.3587 29.9545 15.0234 29.2049 15.2412L23.8809 16.7875C21.2501 17.5511 18.4124 17.1732 16.0958 15.7492L14.6265 14.8459L14.6264 14.8458C14.3465 14.6744 14.1966 14.3727 14.2317 14.0586L14.2318 14.0585C14.2663 13.7447 14.4789 13.4794 14.7907 13.3679C15.5175 13.1082 16.9176 12.5832 18.1214 11.9855L18.1215 11.9855C18.2965 11.8983 18.4294 11.7928 18.5154 11.6554C18.6018 11.5172 18.6343 11.3571 18.6268 11.1726L18.6268 11.1726C18.613 10.8368 18.4577 10.5421 18.1902 10.3456L18.1901 10.3456C17.8982 10.1314 17.513 10.06 17.1344 10.1458C14.4712 10.7431 10.7722 10.8808 6.13368 10.5522L6.02662 10.5446L6.02661 10.6519L6.02653 18.052Z" fill="#8195A5" stroke="white" stroke-width="0.2"/>
<path d="M1.92719 19.9389V20.0389H2.02719H5.21623H5.31623V19.9389V8.55096V8.45096H5.21623H2.02719H1.92719V8.55096V19.9389ZM5.8392 21.0432H1.40422C1.11191 21.0432 0.88125 20.8152 0.88125 20.5411V7.94882C0.88125 7.67466 1.11191 7.44668 1.40422 7.44668H5.8392C6.13151 7.44668 6.36217 7.67466 6.36217 7.94882V20.5411C6.36217 20.8152 6.13151 21.0432 5.8392 21.0432Z" fill="#8195A5" stroke="white" stroke-width="0.2"/>
<path d="M23.7008 4.96274C23.0094 5.17586 22.2645 5.17167 21.4749 5.16539C21.3009 5.16419 21.1266 5.163 20.9521 5.16419C20.7273 5.16599 20.5273 5.30767 20.4517 5.51899C20.3761 5.73061 20.4404 5.96704 20.6131 6.11111L25.7551 10.3961C25.8552 10.4798 25.9766 10.5205 26.0973 10.5205C26.251 10.5205 26.4031 10.4547 26.5092 10.3277C26.6987 10.1005 26.6682 9.76278 26.4405 9.57357L22.4265 6.22826C22.955 6.20823 23.4882 6.14875 24.0155 5.98675C24.8369 5.73388 25.4401 5.14865 25.7133 4.33832C25.7405 4.25761 25.7597 4.17512 25.7797 4.09262H27.3836C27.6795 4.09262 27.9192 3.8529 27.9192 3.55699C27.9192 3.26108 27.6795 3.02136 27.3836 3.02136H25.8344C25.7692 2.53415 25.5872 2.05891 25.2892 1.64281C25.2587 1.60006 25.2234 1.5621 25.1906 1.52145H27.3836C27.6795 1.52145 27.9192 1.28174 27.9192 0.985825C27.9192 0.689912 27.6795 0.450195 27.3836 0.450195L22.9766 0.450494H20.9563C20.6604 0.450494 20.4207 0.690211 20.4207 0.986124C20.4207 1.28204 20.6604 1.52175 20.9563 1.52175H22.9766C23.5364 1.52175 24.0894 1.8075 24.4191 2.26751C24.5817 2.49468 24.6899 2.75412 24.7458 3.02164H20.9564C20.6605 3.02164 20.4207 3.26136 20.4207 3.55727C20.4207 3.85318 20.6605 4.0929 20.9564 4.0929H24.6531C24.4789 4.51464 24.1489 4.8252 23.7009 4.96268L23.7008 4.96274Z" fill="#8195A5"/>
</svg>
