<svg width="35" height="21" viewBox="0 0 35 21" fill="none" xmlns="http://www.w3.org/2000/svg">
<path d="M22.5367 7.4559C21.8454 7.66902 21.1005 7.66484 20.3108 7.65855C20.1368 7.65736 19.9626 7.65616 19.788 7.65736C19.5632 7.65915 19.3633 7.80083 19.2877 8.01215C19.212 8.22377 19.2763 8.46021 19.4491 8.60427L24.591 12.8893C24.6912 12.973 24.8125 13.0137 24.9333 13.0137C25.0869 13.0137 25.2391 12.9479 25.3452 12.8209C25.5347 12.5937 25.5042 12.2559 25.2764 12.0667L21.2625 8.72142C21.7909 8.7014 22.3242 8.64191 22.8515 8.47992C23.6728 8.22705 24.276 7.64181 24.5493 6.83148C24.5765 6.75078 24.5956 6.66828 24.6156 6.58579H26.2195C26.5154 6.58579 26.7551 6.34607 26.7551 6.05016C26.7551 5.75424 26.5154 5.51453 26.2195 5.51453H24.6703C24.6052 5.02732 24.4231 4.55208 24.1251 4.13597C24.0946 4.09323 24.0594 4.05527 24.0265 4.01462H26.2195C26.5154 4.01462 26.7551 3.7749 26.7551 3.47899C26.7551 3.18308 26.5154 2.94336 26.2195 2.94336L21.8125 2.94366H19.7923C19.4964 2.94366 19.2566 3.18338 19.2566 3.47929C19.2566 3.7752 19.4964 4.01492 19.7923 4.01492H21.8125C22.3723 4.01492 22.9253 4.30067 23.255 4.76067C23.4176 4.98784 23.5258 5.24729 23.5817 5.5148H19.7923C19.4964 5.5148 19.2567 5.75452 19.2567 6.05043C19.2567 6.34634 19.4964 6.58606 19.7923 6.58606H23.4891C23.3148 7.00781 22.9848 7.31837 22.5368 7.45585L22.5367 7.4559Z" fill="#8195A5"/>
<path d="M34.1955 0.111328H10.9622C10.6663 0.111328 10.4266 0.351045 10.4266 0.646958V6.81504C8.924 6.88887 7.60796 7.00693 6.93422 7.21736C5.37339 7.70516 0.749075 9.45912 0.552958 9.53357C0.276473 9.63849 0.136888 9.94785 0.242101 10.2243C0.347016 10.5008 0.656678 10.6389 0.932857 10.5352C0.980681 10.5167 5.7233 8.71818 7.25367 8.23994C8.35752 7.89501 12.0086 7.81639 14.4249 7.76469C15.0837 7.75034 15.6868 7.73749 16.1836 7.72165C16.2335 8.05761 16.241 8.57651 15.9651 9.06309C15.5846 9.73442 14.7686 10.193 13.5399 10.4273C9.35406 11.2244 7.80066 12.4376 7.73608 12.4885C7.50622 12.6726 7.46946 13.0065 7.65208 13.2376C7.757 13.3715 7.91392 13.4408 8.07264 13.4408C8.18801 13.4408 8.30489 13.4035 8.40292 13.3275C8.41189 13.3204 9.00251 12.8735 10.4265 12.3591V14.9219C10.4265 15.2178 10.6662 15.4575 10.9621 15.4575H21.2293C20.7971 15.7175 20.3374 16.0021 19.8517 16.3031C17.2833 17.8945 14.073 19.8851 12.0621 19.8349C9.88195 19.7913 8.21645 19.452 6.28826 19.0586C4.74955 18.7448 3.00546 18.3891 0.79683 18.1685C0.506894 18.1452 0.239982 18.3538 0.210683 18.6485C0.181391 18.9426 0.396003 19.2051 0.690715 19.2346C2.84486 19.4499 4.48641 19.7846 6.07417 20.108C7.9716 20.4951 9.76321 20.8604 12.0406 20.9061C12.0677 20.9064 12.0949 20.907 12.1224 20.907C14.4563 20.907 17.6207 18.9462 20.4163 17.2138C21.5578 16.5069 22.635 15.8403 23.4388 15.4574H34.1965C34.4924 15.4574 34.7321 15.2177 34.7321 14.9218L34.7318 0.647288C34.7318 0.351376 34.4921 0.111659 34.1962 0.111659L34.1955 0.111328ZM33.6599 3.71933L31.1235 1.18289H33.6599V3.71933ZM14.0344 1.18259L11.4977 3.71933V1.18259H14.0344ZM11.498 12.013C12.1335 11.828 12.873 11.6445 13.7409 11.4792C15.3017 11.1821 16.3667 10.5415 16.9063 9.57547C17.6027 8.32937 17.123 7.03361 17.102 6.9792C17.0201 6.76369 16.8019 6.62112 16.5787 6.63427C16.0251 6.65848 15.2617 6.67492 14.4024 6.69315C13.474 6.71318 12.4706 6.735 11.4983 6.76937V5.23334L15.5499 1.18176H29.6094L33.6604 5.23334L33.6601 10.3449L29.619 14.3863H23.3011H23.2972H11.4981L11.498 12.013ZM31.1334 14.3863L33.6598 11.8597V14.3863H31.1334Z" fill="#8195A5"/>
</svg>
