<svg width="29" height="23" viewBox="0 0 29 23" fill="none" xmlns="http://www.w3.org/2000/svg">
<path d="M26.7426 17.1041V8.13634H25.6876V17.1041H18.6117L17.5567 18.1591H11.6485L10.4828 17.1041H3.53227V1.27866H25.6879V4.24642H26.7429V0.223633H2.47724V17.1041H0.367188V19.7416C0.367188 21.1984 1.54797 22.3792 3.00476 22.3792H6.29657V21.3242H3.00476C2.13083 21.3242 1.42222 20.6156 1.42222 19.7416V18.1591H10.0734L11.2403 19.2141H17.9925L19.0475 18.1591H27.7976V19.7416C27.7976 20.6156 27.089 21.3242 26.2151 21.3242H9.22912V22.3792H26.2151C27.6719 22.3792 28.8526 21.1984 28.8526 19.7416V17.1041H26.7426Z" fill="#8195A5"/>
<path d="M18.5927 8.48409L16.7877 12.0945L13.6226 3.6543L11.177 8.54746L7.87908 7.44818L6.70703 13.3088L7.74084 13.5155L8.67885 8.82584L11.7111 9.83662L13.4856 6.28956L16.6507 14.7298L19.0657 9.89998L21.2476 10.9908L22.4957 7.24855L21.4935 6.91509L20.6315 9.50298L18.5933 8.48376L18.5927 8.48409Z" fill="#8195A5"/>
</svg>
