<svg width="74" height="28" viewBox="0 0 74 28" fill="none" xmlns="http://www.w3.org/2000/svg">
<path d="M32.779 19.8846C32.779 20.2288 32.6927 20.5476 32.5199 20.8408C32.3472 21.1277 32.0913 21.3604 31.7523 21.5389C31.4133 21.711 31.0006 21.7971 30.5145 21.7971C30.0347 21.7971 29.6061 21.7174 29.2287 21.558C28.8512 21.3923 28.5474 21.1564 28.3171 20.8504C28.0932 20.5444 27.9652 20.1874 27.9333 19.7794H28.5956C29.0385 19.7794 29.3851 20.1552 29.6988 20.4679C29.8908 20.6464 30.1434 20.7356 30.4569 20.7356C30.7384 20.7356 30.9527 20.6623 31.0998 20.5157C31.2533 20.3627 31.3301 20.1682 31.3301 19.9324C31.3301 19.722 31.2693 19.5499 31.1478 19.416C31.0262 19.2757 30.8727 19.1642 30.6872 19.0813C30.5017 18.9984 30.2458 18.9028 29.9195 18.7944C29.4973 18.6542 29.1519 18.5171 28.8832 18.3832C28.6145 18.243 28.3842 18.0422 28.1923 17.7808C28.0068 17.5194 27.9141 17.1783 27.9141 16.7576C27.9141 16.1774 28.122 15.7216 28.5378 15.3901C28.96 15.0522 29.5165 14.8833 30.2074 14.8833C30.9239 14.8833 31.4932 15.0554 31.9154 15.3997C32.344 15.7439 32.5871 16.2029 32.6447 16.7767H31.867C31.4749 16.7767 31.1677 16.4493 30.8791 16.1838C30.7128 16.0244 30.4857 15.9448 30.1978 15.9448C29.9483 15.9448 29.7468 16.0117 29.5933 16.1456C29.4398 16.2731 29.363 16.4611 29.363 16.7098C29.363 16.9074 29.4206 17.0731 29.5357 17.207C29.6573 17.3345 29.8076 17.4397 29.9867 17.5226C30.1722 17.6055 30.4217 17.6979 30.7352 17.7999C31.1702 17.9529 31.522 18.0963 31.7907 18.2302C32.0658 18.3641 32.2992 18.5649 32.4912 18.8327C32.6831 19.1004 32.779 19.451 32.779 19.8846Z" fill="#55A630"/>
<path d="M35.4165 16.0499V17.7999H37.8154V18.8327H35.4165V20.6496H37.0227C37.6195 20.6496 38.1033 21.1333 38.1033 21.7301H34.0636V14.9789H38.1033C38.1033 15.5704 37.6238 16.0499 37.0323 16.0499H35.4165Z" fill="#55A630"/>
<path d="M40.7458 20.6974H41.9872C42.5576 20.6974 43.02 21.1598 43.02 21.7301H39.3929V14.9789C40.1401 14.9789 40.7458 15.5847 40.7458 16.3319V20.6974Z" fill="#55A630"/>
<path d="M45.466 20.6974H46.7074C47.2778 20.6974 47.7402 21.1598 47.7402 21.7301H44.1131V14.9789C44.8603 14.9789 45.466 15.5847 45.466 16.3319V20.6974Z" fill="#55A630"/>
<path d="M50.1862 16.0499V17.7999H52.5851V18.8327H50.1862V20.6496H51.7924C52.3892 20.6496 52.873 21.1333 52.873 21.7301H48.8333V14.9789H52.873V16.0499H50.1862Z" fill="#55A630"/>
<path d="M59.1907 21.7301C58.2618 21.7301 57.4008 21.2435 56.9216 20.4477L56.1105 19.1004H55.5155V20.3772C55.5155 21.1244 54.9098 21.7301 54.1626 21.7301V14.9789H56.7438C57.5306 14.9789 58.1287 15.1702 58.5382 15.5527C58.954 15.9352 59.1619 16.4388 59.1619 17.0636C59.1619 17.5736 59.0179 18.0007 58.7301 18.345C58.4486 18.6892 58.0392 18.9187 57.5018 19.0335L59.1907 21.7301ZM55.5155 18.1728H56.6286C57.4027 18.1728 57.7897 17.8318 57.7897 17.1496C57.7897 16.8245 57.6937 16.5727 57.5018 16.3942C57.3163 16.2093 57.0252 16.1169 56.6286 16.1169H55.5155V18.1728Z" fill="#55A630"/>
<path d="M33.6088 5.66282C33.6088 6.45448 32.967 7.09625 32.1753 7.09625H31.5966V13.1146H29.794V7.09625H29.2362C28.4445 7.09625 27.8027 6.45448 27.8027 5.66282H33.6088Z" fill="#007F5F"/>
<path d="M40.254 13.1146C39.0294 13.1146 37.8989 12.4576 37.2927 11.3936L36.6698 10.3004H36.2611V11.3225C36.2611 12.3122 35.4587 13.1146 34.469 13.1146V5.66282H37.5292C38.1161 5.66282 38.6121 5.7647 39.0174 5.96847C39.4226 6.17225 39.7265 6.45331 39.9291 6.81167C40.1318 7.163 40.2331 7.56704 40.2331 8.02377C40.2331 8.56482 40.0829 9.02507 39.7824 9.40451C39.489 9.78395 39.0593 10.0439 38.4934 10.1845L40.254 13.1146ZM36.2611 9.06723H37.372C37.7283 9.06723 37.9903 8.98993 38.158 8.83535C38.3257 8.67373 38.4095 8.43834 38.4095 8.12917C38.4095 7.83405 38.3222 7.60217 38.1475 7.43353C37.9798 7.26489 37.7213 7.18057 37.372 7.18057H36.2611V9.06723Z" fill="#007F5F"/>
<path d="M41.1945 5.66282C42.1785 5.66282 42.9762 6.46048 42.9762 7.44445V9.96313C42.9762 10.455 43.0845 10.8309 43.3011 11.0909C43.5246 11.3509 43.846 11.4809 44.2652 11.4809C44.6845 11.4809 45.0023 11.3509 45.2189 11.0909C45.4425 10.8309 45.5543 10.455 45.5543 9.96313V7.45493C45.5543 6.46517 46.3567 5.66282 47.3464 5.66282V9.96313C47.3464 10.6658 47.2102 11.2595 46.9377 11.7444C46.6652 12.2222 46.2914 12.5841 45.8163 12.83C45.3482 13.0689 44.8172 13.1884 44.2233 13.1884C43.6294 13.1884 43.1054 13.0689 42.6513 12.83C42.1972 12.5911 41.8408 12.2292 41.5823 11.7444C41.3238 11.2595 41.1945 10.6658 41.1945 9.96313V5.66282Z" fill="#007F5F"/>
<path d="M53.9727 11.0171C53.9727 11.4106 53.8714 11.7725 53.6688 12.1027C53.4731 12.433 53.1797 12.6965 52.7884 12.8932C52.4042 13.09 51.936 13.1884 51.3841 13.1884C50.5527 13.1884 49.8679 12.9846 49.33 12.577C48.792 12.1695 48.4985 11.6003 48.4496 10.8696H49.6153C50.0363 10.8696 50.3473 11.2414 50.6505 11.5336C50.8251 11.6952 51.0452 11.776 51.3107 11.776C51.5413 11.776 51.7229 11.7128 51.8557 11.5863C51.9884 11.4598 52.0548 11.2912 52.0548 11.0804C52.0548 10.8906 51.9919 10.7325 51.8662 10.6061C51.7474 10.4796 51.5972 10.3777 51.4155 10.3004C51.2339 10.2161 50.9823 10.1177 50.6609 10.0053C50.1928 9.84367 49.8086 9.68909 49.5081 9.54153C49.2147 9.38694 48.9597 9.16209 48.7431 8.86697C48.5335 8.56482 48.4287 8.17484 48.4287 7.69703C48.4287 7.25435 48.5405 6.8714 48.764 6.54817C48.9876 6.22495 49.295 5.97901 49.6863 5.81037C50.0845 5.63471 50.5387 5.54688 51.0487 5.54688C51.8732 5.54688 52.5264 5.74362 53.0085 6.13711C53.4976 6.53061 53.7736 7.07166 53.8364 7.76027H52.5505C52.1759 7.76027 51.8956 7.43965 51.6251 7.18057C51.4854 7.03301 51.2933 6.95923 51.0487 6.95923C50.8391 6.95923 50.6679 7.01544 50.5352 7.12787C50.4094 7.2403 50.3465 7.40542 50.3465 7.62325C50.3465 7.79892 50.4024 7.94999 50.5142 8.07647C50.633 8.19592 50.7797 8.2943 50.9544 8.37159C51.1291 8.44888 51.3806 8.54726 51.709 8.66671C52.1841 8.82832 52.5718 8.98993 52.8723 9.15155C53.1727 9.30613 53.4312 9.5345 53.6478 9.83665C53.8644 10.1388 53.9727 10.5323 53.9727 11.0171Z" fill="#007F5F"/>
<path d="M60.3922 5.66282C60.3922 6.45448 59.7505 7.09625 58.9588 7.09625H58.38V13.1146H56.5774V7.09625H56.0196C55.228 7.09625 54.5862 6.45448 54.5862 5.66282H60.3922Z" fill="#007F5F"/>
<path d="M63.0445 7.09625V8.65617H65.5493V10.0158H63.0445V11.6706H64.4197C65.2172 11.6706 65.8637 12.3171 65.8637 13.1146H61.2524V5.66282H65.8637C65.8637 6.45448 65.2219 7.09625 64.4303 7.09625H63.0445Z" fill="#007F5F"/>
<path d="M73.6516 9.37289C73.6516 10.1037 73.4944 10.7536 73.18 11.3228C72.8726 11.8849 72.4254 12.3241 71.8386 12.6403C71.2587 12.9565 70.574 13.1146 69.7844 13.1146H66.9862V5.66282H69.7844C70.5809 5.66282 71.2691 5.8174 71.849 6.12657C72.4289 6.43575 72.8726 6.8714 73.18 7.43353C73.4944 7.99566 73.6516 8.64211 73.6516 9.37289ZM69.6272 11.502C70.3259 11.502 70.8674 11.3158 71.2517 10.9433C71.6429 10.5709 71.8386 10.0474 71.8386 9.37289C71.8386 8.69833 71.6429 8.17484 71.2517 7.80243C70.8674 7.43002 70.3259 7.24381 69.6272 7.24381H68.7783V11.502H69.6272Z" fill="#007F5F"/>
<g clip-path="url(#clip0_13367_214891)">
<path d="M13.4153 27.2925C13.3543 27.2925 13.2932 27.2849 13.2335 27.2697C10.2303 26.507 7.52728 24.7219 5.62215 22.2433C3.71711 19.7646 2.66797 16.6676 2.66797 13.5229V5.86278C2.66797 5.54525 2.86187 5.26102 3.1545 5.14956L13.1521 1.34096C13.3218 1.27632 13.5089 1.27632 13.6786 1.34096L23.6761 5.14956C23.9688 5.26102 24.1627 5.54525 24.1627 5.86278V13.5229C24.1627 16.6676 23.1136 19.7646 21.2085 22.2433C19.3034 24.722 16.6003 26.5071 13.5971 27.2697C13.5375 27.2849 13.4764 27.2925 13.4153 27.2925Z" fill="url(#paint0_linear_13367_214891)"/>
<path d="M13.5979 27.2697C16.601 26.507 19.3041 24.7219 21.2092 22.2433C23.1142 19.7646 24.1634 16.6676 24.1634 13.5229V5.86279C24.1634 5.54526 23.9695 5.26104 23.6769 5.14957L13.6793 1.34098C13.5944 1.30863 13.5052 1.29248 13.416 1.29248V27.2925C13.4771 27.2925 13.5381 27.2849 13.5979 27.2697Z" fill="url(#paint1_linear_13367_214891)"/>
<path d="M22.5791 5.91163L13.6511 2.42042C13.4996 2.36116 13.3324 2.36116 13.1809 2.42042L22.5791 5.91163ZM22.5791 5.91163C22.8405 6.01381 23.0137 6.27435 23.0137 6.56542V13.5872C23.0137 16.4699 22.0768 19.3087 20.3755 21.5809C18.6742 23.853 16.2603 25.4894 13.5784 26.1885L22.5791 5.91163ZM13.2915 26.0433L13.2915 26.0433C10.6433 25.353 8.25808 23.7366 6.57658 21.491C4.89509 19.2452 3.96836 16.4379 3.96836 13.5872V6.56542C3.96836 6.33306 4.10645 6.12993 4.30747 6.05133L4.30747 6.05133L13.2355 2.56012C13.352 2.51459 13.4801 2.5146 13.5965 2.56012L13.5965 2.56012L22.5245 6.05133L22.5245 6.05134C22.7256 6.12993 22.8637 6.33306 22.8637 6.56542V13.5872C22.8637 16.438 21.9369 19.2452 20.2554 21.491C18.574 23.7366 16.1887 25.353 13.5405 26.0433L13.5405 26.0433C13.4996 26.054 13.4578 26.0593 13.416 26.0593C13.3742 26.0593 13.3324 26.054 13.2915 26.0433Z" stroke="white" stroke-width="0.3"/>
<path d="M13.4161 24.1226C13.3368 24.1226 13.2576 24.1099 13.1814 24.0844C8.68738 22.58 5.66797 18.3356 5.66797 13.5227V7.97411C5.66797 7.65657 5.86187 7.37235 6.1545 7.26089L13.1528 4.59487C13.3225 4.53023 13.5097 4.53023 13.6793 4.59487L20.6776 7.26089C20.9702 7.37235 21.1641 7.65657 21.1641 7.97411V13.5227C21.1641 18.3356 18.1447 22.58 13.6507 24.0844C13.5745 24.1099 13.4953 24.1226 13.4161 24.1226Z" fill="url(#paint2_linear_13367_214891)"/>
<path d="M13.6507 24.0844C18.1447 22.58 21.1641 18.3356 21.1641 13.5227V7.97412C21.1641 7.65659 20.9702 7.37236 20.6776 7.2609L13.6793 4.59488C13.5945 4.56254 13.5052 4.54639 13.416 4.54639V24.1227C13.4952 24.1227 13.5745 24.1099 13.6507 24.0844Z" fill="url(#paint3_linear_13367_214891)"/>
</g>
<path d="M14.044 20.7923C13.0191 19.3488 9.23992 13.9029 6.83789 12.5906C9.40006 12.0985 12.4567 14.1778 13.4175 14.834C19.1824 8.92876 21.4102 6.02931 26.2143 3.40479C17.8872 12.2626 15.3251 17.5116 14.044 20.7923Z" fill="#FEBD13"/>
<path d="M13.8839 18.4958C11.0014 14.7231 9.88047 13.9029 6.83789 12.5906C9.15191 12.1256 12.3511 13.209 13.4175 14.834C19.1824 8.92876 21.4102 6.02931 26.2143 3.40479C18.2075 10.9503 15.1649 15.2152 13.8839 18.4958Z" fill="url(#paint4_linear_13367_214891)"/>
<defs>
<linearGradient id="paint0_linear_13367_214891" x1="7.01691" y1="1.29247" x2="13.6077" y2="27.2436" gradientUnits="userSpaceOnUse">
<stop stop-color="#55A630"/>
<stop offset="1" stop-color="#2B9348"/>
</linearGradient>
<linearGradient id="paint1_linear_13367_214891" x1="18.7897" y1="1.29248" x2="14.3488" y2="26.1853" gradientUnits="userSpaceOnUse">
<stop stop-color="#2B9348"/>
<stop offset="1" stop-color="#55A630"/>
</linearGradient>
<linearGradient id="paint2_linear_13367_214891" x1="8.08405" y1="4.54231" x2="13.5742" y2="24.0782" gradientUnits="userSpaceOnUse">
<stop stop-color="#007F5F"/>
<stop offset="1" stop-color="#007F5F"/>
</linearGradient>
<linearGradient id="paint3_linear_13367_214891" x1="17.2901" y1="4.54639" x2="13.8456" y2="24.024" gradientUnits="userSpaceOnUse">
<stop stop-color="#55A630"/>
<stop offset="1" stop-color="#2B9348"/>
</linearGradient>
<linearGradient id="paint4_linear_13367_214891" x1="25.148" y1="3.45895" x2="13.7506" y2="16.281" gradientUnits="userSpaceOnUse">
<stop stop-color="white"/>
<stop offset="1" stop-color="#F7FAFE"/>
</linearGradient>
<clipPath id="clip0_13367_214891">
<rect width="25.5938" height="26" fill="white" transform="translate(0.619141 1.29248)"/>
</clipPath>
</defs>
</svg>
